<svg xmlns="http://www.w3.org/2000/svg" viewBox="0 0 843.97 227.19"><defs><style>.cls-1{fill:#999c9c;}.cls-2{fill:#1b2145;}.cls-3{fill:#482a91;}.cls-4{fill:#2ba9da;}.cls-5{fill:#098142;}.cls-6{fill:#fcc910;}.cls-7{fill:#f3662a;}.cls-8{fill:#e91c24;}.cls-9{fill:#fff;}.cls-10{fill:#7d8182;}</style></defs><title>FACTTIC</title><g id="Layer_2" data-name="Layer 2"><g id="Capa_1" data-name="Capa 1"><g id="g3158"><path id="path3160" class="cls-1" d="M579.43,0V146.53h26.92V135H590.1V11.5h16.25V0H579.43Z"/></g><g id="g3162"><path id="path3164" class="cls-1" d="M841.47,0V146.53H814.56V135h16.25V11.5H814.6V0h26.87Z"/></g><path id="path3166" class="cls-2" d="M327.05,146.53H246.68V135h80.37Z"/><path id="path3168" class="cls-3" d="M407.43,146.53H327.05V135h80.38Z"/><path id="path3170" class="cls-4" d="M487.8,146.53H407.43V135H487.8Z"/><path id="path3172" class="cls-5" d="M568.17,146.53H487.8V135h80.37Z"/><path id="path3174" class="cls-6" d="M679.61,146.53h-61.8V135h61.8Z"/><path id="path3176" class="cls-7" d="M741.42,146.53H679.61V135h61.81Z"/><path id="path3178" class="cls-8" d="M803.22,146.53h-61.8V135h61.8Z"/><g id="g3130"><path id="path3132" class="cls-9" d="M257.53,15.05h62.4V30.18H272.65V54.91h33V70h-33v45.09H257.53V15.05"/></g><g id="g3134"><path id="path3136" class="cls-9" d="M381.28,87.64H346.66l-9,27.63H322.08l33.5-100.22h17.65l33.5,100.22H390.3l-9-27.63M351.75,72.8h25.46L364.26,32.94,351.75,72.8"/></g><g id="g3138"><path id="path3140" class="cls-9" d="M489.23,92.58q0,10.33-10.33,17.46a37.68,37.68,0,0,1-21.67,7q-25,0-34.77-14.84-9.58-14.84-9.6-35.78,0-20.65,10.33-35.93t34-15.27A38.64,38.64,0,0,1,478.9,22q10.34,6.83,10.33,17H473.72a.81.81,0,0,1-.82-.71q-.42-3.73-5.2-6.12a23.75,23.75,0,0,0-10.76-2.62q-16.57,0-22.84,11.49a50.9,50.9,0,0,0-6.25,24.73,55.84,55.84,0,0,0,5.67,25.31q5.67,11.34,23.13,11.34a24.8,24.8,0,0,0,10.91-2.61c3.29-1.7,5.08-3.88,5.34-6.56a.82.82,0,0,1,.82-.72h15.51"/></g><g id="g3142"><path id="path3144" class="cls-9" d="M568.17,30.18H541v84.95H525.84V30.18H498.93V15.05h69.24"/></g><g id="g3146"><path id="path3148" class="cls-9" d="M682.88,30.18h-27.2v84.95H640.55V30.18H613.64V15.05h69.24"/></g><g id="g3150"><path id="path3152" class="cls-9" d="M721.21,115.13H706.09V30.33H694.74V15.05h26.47V115.13"/></g><g id="g3154"><path id="path3156" class="cls-9" d="M808.85,92.58q0,10.33-10.33,17.46a37.66,37.66,0,0,1-21.67,7q-25,0-34.76-14.84t-9.6-35.78q0-20.65,10.33-35.93t34-15.27A38.61,38.61,0,0,1,798.52,22q10.34,6.83,10.33,17H793.33a.81.81,0,0,1-.81-.71c-.27-2.48-2-4.53-5.19-6.12a23.79,23.79,0,0,0-10.77-2.62q-16.57,0-22.84,11.49a50.9,50.9,0,0,0-6.25,24.73,55.84,55.84,0,0,0,5.67,25.31q5.68,11.34,23.13,11.34a24.76,24.76,0,0,0,10.91-2.61c3.3-1.7,5.08-3.88,5.35-6.56a.81.81,0,0,1,.81-.72h15.51"/></g><g id="g3180"><path id="path3182" class="cls-9" d="M254.82,203.54a3.78,3.78,0,0,1,1.53,1.44,6.94,6.94,0,0,1,.92,2.05,10.87,10.87,0,0,1,.43,2.3c.08.79.12,1.53.12,2.2s0,1.51-.12,2.36a12,12,0,0,1-.46,2.46,8,8,0,0,1-1,2.14,3.74,3.74,0,0,1-1.66,1.41,5.62,5.62,0,0,1-1.28.34q-.67.06-1.35.06h-3.5V203.08h3.44a13.37,13.37,0,0,1,1.5.09,3.67,3.67,0,0,1,1.41.37m2.36,17.83a6.48,6.48,0,0,0,1.59-2,13.18,13.18,0,0,0,1-2.54,17.14,17.14,0,0,0,.52-2.7,23.86,23.86,0,0,0,.16-2.54,25.48,25.48,0,0,0-.22-3.1,12.85,12.85,0,0,0-.83-3.21,9.08,9.08,0,0,0-1.65-2.76,5.51,5.51,0,0,0-2.7-1.72,5.66,5.66,0,0,0-1.56-.27c-.55,0-1.07,0-1.56,0h-6.13V222.9h6.43a11.36,11.36,0,0,0,2.58-.3,5.94,5.94,0,0,0,2.36-1.23"/></g><g id="g3184"><path id="path3186" class="cls-9" d="M263.78,222.91H277v-2.58H266.41v-7.72h8.86V210h-8.86v-7h10.24v-2.58H263.78Z"/></g><g id="g3188"><path id="path3190" class="cls-9" d="M293.59,203.05h5.73v-2.57H285.26v2.57H291v19.86h2.63Z"/></g><g id="g3192"><path id="path3194" class="cls-9" d="M301.88,222.91h13.27v-2.58H304.52v-7.72h8.85V210h-8.85v-7h10.23v-2.58H301.88Z"/></g><g id="g3196"><path id="path3198" class="cls-9" d="M326.1,223.27a6.5,6.5,0,0,0,2.91-.61,6.87,6.87,0,0,0,2.15-1.69,8.8,8.8,0,0,0,1.44-2.39,15.29,15.29,0,0,0,.89-2.88l-2.55-.82a13.63,13.63,0,0,1-.58,2.2,6.79,6.79,0,0,1-1,1.87,4.68,4.68,0,0,1-1.44,1.29,4.09,4.09,0,0,1-2,.46,4.26,4.26,0,0,1-2.79-.89,6.62,6.62,0,0,1-1.65-2.3,11.4,11.4,0,0,1-.8-3,23.75,23.75,0,0,1-.22-3,22.63,22.63,0,0,1,.22-3,10.6,10.6,0,0,1,.86-2.88,5.77,5.77,0,0,1,1.68-2.14,4.31,4.31,0,0,1,2.76-.86,3.83,3.83,0,0,1,1.69.34,3.44,3.44,0,0,1,1.25.95,4.4,4.4,0,0,1,.89,1.41,10.11,10.11,0,0,1,.61,1.81l2.61-.71a12.19,12.19,0,0,0-1-2.54,6.91,6.91,0,0,0-1.47-2,6,6,0,0,0-2-1.32,6.42,6.42,0,0,0-2.58-.49,6.6,6.6,0,0,0-3.92,1.1,8.51,8.51,0,0,0-2.54,2.76,12,12,0,0,0-1.35,3.71,19.25,19.25,0,0,0-.4,3.86,22.74,22.74,0,0,0,.37,4,12,12,0,0,0,1.31,3.77,8.22,8.22,0,0,0,2.55,2.82,6.9,6.9,0,0,0,4,1.1"/></g><g id="g3200"><path id="path3202" class="cls-9" d="M347.75,222.91h2.63V200.47h-2.57v16.67L339,200.47h-2.61v22.44H339V206.24Z"/></g><g id="g3204"><path id="path3206" class="cls-9" d="M362.13,202.65a4.29,4.29,0,0,1,2.76.89,6.21,6.21,0,0,1,1.75,2.27,10.78,10.78,0,0,1,.95,2.94,18,18,0,0,1,.27,3,18.33,18.33,0,0,1-.27,3,10.1,10.1,0,0,1-.92,2.91,6.56,6.56,0,0,1-1.81,2.2,4.44,4.44,0,0,1-2.79.86,4.39,4.39,0,0,1-2.73-.83,6.19,6.19,0,0,1-1.77-2.11,10.34,10.34,0,0,1-1-2.82,16,16,0,0,1-.28-2.94c0-.57,0-1.19.06-1.84a16.39,16.39,0,0,1,.25-2,10.09,10.09,0,0,1,.52-1.87,5.42,5.42,0,0,1,.89-1.56,6.49,6.49,0,0,1,1.8-1.57,4.52,4.52,0,0,1,2.3-.58m-.06,20.62a7,7,0,0,0,2.79-.52A6.58,6.58,0,0,0,367,221.4a8.87,8.87,0,0,0,1.63-2,10.73,10.73,0,0,0,1.07-2.42,14.13,14.13,0,0,0,.61-2.63,15.85,15.85,0,0,0,.22-2.61,18.4,18.4,0,0,0-.46-3.92,12.11,12.11,0,0,0-1.44-3.77,8.39,8.39,0,0,0-2.61-2.82,6.69,6.69,0,0,0-3.95-1.13,7.43,7.43,0,0,0-2.88.52A7.15,7.15,0,0,0,357,202a9.24,9.24,0,0,0-1.59,2.08,12.37,12.37,0,0,0-1,2.48,16.42,16.42,0,0,0-.58,2.7,24.79,24.79,0,0,0-.16,2.67,17.58,17.58,0,0,0,.46,3.86,12.77,12.77,0,0,0,1.51,3.64,8.59,8.59,0,0,0,2.6,2.73,6.71,6.71,0,0,0,3.86,1.07"/></g><g id="g3208"><path id="path3210" class="cls-9" d="M373.51,222.91h11.18v-2.58h-8.54V200.47h-2.64Z"/></g><g id="g3212"><path id="path3214" class="cls-9" d="M395.38,202.65a4.24,4.24,0,0,1,2.75.89,6.21,6.21,0,0,1,1.75,2.27,10.45,10.45,0,0,1,.95,2.94,18,18,0,0,1,.27,3,18.33,18.33,0,0,1-.27,3,9.8,9.8,0,0,1-.92,2.91,6.56,6.56,0,0,1-1.81,2.2,4.4,4.4,0,0,1-2.79.86,4.34,4.34,0,0,1-2.72-.83,6.1,6.1,0,0,1-1.78-2.11,10.34,10.34,0,0,1-1-2.82,16,16,0,0,1-.28-2.94c0-.57,0-1.19.06-1.84a18.65,18.65,0,0,1,.25-2,10.93,10.93,0,0,1,.52-1.87,5.42,5.42,0,0,1,.89-1.56,6.39,6.39,0,0,1,1.81-1.57,4.49,4.49,0,0,1,2.3-.58m-.07,20.62a7,7,0,0,0,2.79-.52,6.73,6.73,0,0,0,2.18-1.35,9.1,9.1,0,0,0,1.62-2A10.73,10.73,0,0,0,403,217a15,15,0,0,0,.62-2.63,17,17,0,0,0,.21-2.61,17.78,17.78,0,0,0-.46-3.92A11.87,11.87,0,0,0,401.9,204a8.46,8.46,0,0,0-2.6-2.82,6.72,6.72,0,0,0-4-1.13,7.43,7.43,0,0,0-2.88.52,7,7,0,0,0-2.2,1.44,9,9,0,0,0-1.6,2.08,13,13,0,0,0-1,2.48,17.53,17.53,0,0,0-.58,2.7,24.72,24.72,0,0,0-.15,2.67,17,17,0,0,0,.46,3.86,12.48,12.48,0,0,0,1.5,3.64,8.59,8.59,0,0,0,2.6,2.73,6.71,6.71,0,0,0,3.86,1.07"/></g><g id="g3216"><path id="path3218" class="cls-9" d="M422.35,219.93h.28v-8.42l-7.76,0v2.51H420v4.35a6.47,6.47,0,0,1-2.24,1.57,6.69,6.69,0,0,1-2.63.58,5.28,5.28,0,0,1-3-.8,6.11,6.11,0,0,1-1.9-2.11,10.05,10.05,0,0,1-1-2.85,18.63,18.63,0,0,1,0-6.32,10,10,0,0,1,1-2.88,6,6,0,0,1,1.87-2.08,5.13,5.13,0,0,1,3-.82,4.68,4.68,0,0,1,1.93.36,4,4,0,0,1,1.41,1,5.51,5.51,0,0,1,.95,1.63,15.07,15.07,0,0,1,.64,2.05l2.33-.8a11.92,11.92,0,0,0-.89-2.78A6.9,6.9,0,0,0,420,202a5.73,5.73,0,0,0-2.08-1.41,7.69,7.69,0,0,0-2.88-.49,7.59,7.59,0,0,0-4.14,1.07,8.48,8.48,0,0,0-2.73,2.73,12.2,12.2,0,0,0-1.5,3.77,20.92,20.92,0,0,0-.43,4.13,18,18,0,0,0,.49,4.11,11.38,11.38,0,0,0,1.57,3.68,9,9,0,0,0,2.79,2.66,8,8,0,0,0,4.16,1,7,7,0,0,0,2.48-.46,12.79,12.79,0,0,0,2.27-1.08v1.17h2.58v-3.22l-.25.24"/></g><path id="path3220" class="cls-9" d="M426.53,222.91h2.63V200.48h-2.63Zm1.68-23.78,2.58-4.17h-3.28L426,199.13Z"/><g id="g3222"><path id="path3224" class="cls-9" d="M439.54,204.27q.61,2.37,1.32,4.69l1.41,4.66H437l1.41-4.63a44.52,44.52,0,0,0,1.16-4.72m5.61,18.64h3l-7.27-22.44h-2.69l-6.81,22.44h2.85l1.9-6.71h7l2,6.71"/></g><g id="g3226"><path id="path3228" class="cls-9" d="M450.22,227.19a4,4,0,0,0,1.84-1.89,4.64,4.64,0,0,0,.34-1.17,8,8,0,0,0,.09-1.22v-3h-2.73v3H451a6.62,6.62,0,0,1-.34,1.65,2.23,2.23,0,0,1-1.13,1.29l.7,1.34"/></g><path id="path3230" class="cls-9" d="M463.32,222.91H466V200.48h-2.63Z"/><g id="g3232"><path id="path3234" class="cls-9" d="M481.51,222.91h2.64V200.47h-2.58v16.67l-8.82-16.67h-2.61v22.44h2.58V206.24Z"/></g><g id="g3236"><path id="path3238" class="cls-9" d="M499.45,222.91h2.64V200.47h-2.58v16.67l-8.82-16.67h-2.61v22.44h2.58V206.24Z"/></g><g id="g3240"><path id="path3242" class="cls-9" d="M513.83,202.65a4.25,4.25,0,0,1,2.76.89,6.21,6.21,0,0,1,1.75,2.27,10.78,10.78,0,0,1,.95,2.94,18,18,0,0,1,.27,3,18.33,18.33,0,0,1-.27,3,9.8,9.8,0,0,1-.92,2.91,6.56,6.56,0,0,1-1.81,2.2,4.4,4.4,0,0,1-2.79.86,4.34,4.34,0,0,1-2.72-.83,6.1,6.1,0,0,1-1.78-2.11,10.34,10.34,0,0,1-1-2.82,16,16,0,0,1-.28-2.94c0-.57,0-1.19.06-1.84a18.65,18.65,0,0,1,.25-2,10.93,10.93,0,0,1,.52-1.87,5.66,5.66,0,0,1,.89-1.56,6.39,6.39,0,0,1,1.81-1.57,4.48,4.48,0,0,1,2.29-.58m-.06,20.62a7,7,0,0,0,2.79-.52,6.73,6.73,0,0,0,2.18-1.35,9.1,9.1,0,0,0,1.62-2,10.73,10.73,0,0,0,1.07-2.42,15,15,0,0,0,.62-2.63,17,17,0,0,0,.21-2.61,17.78,17.78,0,0,0-.46-3.92,12.11,12.11,0,0,0-1.44-3.77,8.46,8.46,0,0,0-2.6-2.82,6.72,6.72,0,0,0-4-1.13,7.43,7.43,0,0,0-2.88.52,7,7,0,0,0-2.2,1.44,9,9,0,0,0-1.6,2.08,13,13,0,0,0-1,2.48,17.53,17.53,0,0,0-.58,2.7,24.79,24.79,0,0,0-.16,2.67,17.58,17.58,0,0,0,.46,3.86,12.77,12.77,0,0,0,1.51,3.64,8.59,8.59,0,0,0,2.6,2.73,6.71,6.71,0,0,0,3.86,1.07"/></g><g id="g3244"><path id="path3246" class="cls-9" d="M532.9,222.91l6.93-22.44h-2.76l-4.72,16.09q-.21.7-.39,1.38c-.13.45-.25.91-.37,1.38-.11-.45-.22-.9-.34-1.35s-.21-.89-.34-1.31l-4.59-16.19h-2.88l6.86,22.44h2.6"/></g><g id="g3248"><path id="path3250" class="cls-9" d="M548.09,204.27q.6,2.37,1.31,4.69l1.41,4.66h-5.3l1.41-4.63a47.14,47.14,0,0,0,1.17-4.72m5.6,18.64h3l-7.27-22.44h-2.69L540,222.91h2.86l1.89-6.71h7l2,6.71"/></g><g id="g3252"><path id="path3254" class="cls-9" d="M566.24,223.27a6.56,6.56,0,0,0,2.91-.61,6.83,6.83,0,0,0,2.14-1.69,8.55,8.55,0,0,0,1.44-2.39,14.59,14.59,0,0,0,.89-2.88l-2.54-.82a14.75,14.75,0,0,1-.58,2.2,7.37,7.37,0,0,1-1,1.87,4.68,4.68,0,0,1-1.44,1.29,4.16,4.16,0,0,1-2,.46,4.26,4.26,0,0,1-2.79-.89,6.62,6.62,0,0,1-1.65-2.3,11.81,11.81,0,0,1-.8-3,23.65,23.65,0,0,1-.21-3,22.55,22.55,0,0,1,.21-3,11,11,0,0,1,.86-2.88,5.69,5.69,0,0,1,1.69-2.14,4.26,4.26,0,0,1,2.75-.86,3.8,3.8,0,0,1,1.69.34,3.56,3.56,0,0,1,1.26.95,4.56,4.56,0,0,1,.88,1.41,11,11,0,0,1,.62,1.81l2.6-.71a11.66,11.66,0,0,0-1-2.54,6.91,6.91,0,0,0-1.47-2,5.92,5.92,0,0,0-2-1.32,6.38,6.38,0,0,0-2.58-.49,6.6,6.6,0,0,0-3.92,1.1,8.51,8.51,0,0,0-2.54,2.76,12.54,12.54,0,0,0-1.35,3.71,20,20,0,0,0-.4,3.86,23.71,23.71,0,0,0,.37,4,12.31,12.31,0,0,0,1.32,3.77,8.2,8.2,0,0,0,2.54,2.82,6.91,6.91,0,0,0,4,1.1"/></g><path id="path3256" class="cls-9" d="M577,222.91h2.64V200.48H577Z"/><g id="g3258"><path id="path3260" class="cls-9" d="M591.61,202.65a4.25,4.25,0,0,1,2.76.89,6.21,6.21,0,0,1,1.75,2.27,10.78,10.78,0,0,1,1,2.94,18,18,0,0,1,.27,3,18.33,18.33,0,0,1-.27,3,10.1,10.1,0,0,1-.92,2.91,6.56,6.56,0,0,1-1.81,2.2,4.42,4.42,0,0,1-2.79.86,4.34,4.34,0,0,1-2.72-.83,6.1,6.1,0,0,1-1.78-2.11,10.34,10.34,0,0,1-1-2.82,16,16,0,0,1-.28-2.94c0-.57,0-1.19.06-1.84a18.65,18.65,0,0,1,.25-2,10.93,10.93,0,0,1,.52-1.87,5.42,5.42,0,0,1,.89-1.56,6.39,6.39,0,0,1,1.81-1.57,4.49,4.49,0,0,1,2.3-.58m-.07,20.62a7,7,0,0,0,2.79-.52,6.73,6.73,0,0,0,2.18-1.35,9.1,9.1,0,0,0,1.62-2,10.73,10.73,0,0,0,1.07-2.42,15,15,0,0,0,.62-2.63,17,17,0,0,0,.21-2.61,17.78,17.78,0,0,0-.46-3.92,12.11,12.11,0,0,0-1.44-3.77,8.46,8.46,0,0,0-2.6-2.82,6.74,6.74,0,0,0-4-1.13,7.43,7.43,0,0,0-2.88.52,7.11,7.11,0,0,0-2.2,1.44,9,9,0,0,0-1.6,2.08,13,13,0,0,0-1,2.48,17.53,17.53,0,0,0-.58,2.7,24.72,24.72,0,0,0-.15,2.67,17,17,0,0,0,.46,3.86,12.48,12.48,0,0,0,1.5,3.64,8.59,8.59,0,0,0,2.6,2.73,6.71,6.71,0,0,0,3.86,1.07m.71-24.14,2.57-4.17h-3.25L590,199.13h2.27"/></g><g id="g3262"><path id="path3264" class="cls-9" d="M614.42,222.91h2.64V200.47h-2.58v16.67l-8.82-16.67h-2.61v22.44h2.58V206.24Z"/></g><g id="g3266"><path id="path3268" class="cls-9" d="M634.74,213.41l7-12.94h-3c-.9,1.74-1.79,3.43-2.69,5.06s-1.71,3.31-2.48,5c-.78-1.72-1.61-3.39-2.49-5s-1.76-3.32-2.66-5.06h-3.16l6.84,12.94v9.5h2.66v-9.5"/></g><g id="g3270"><path id="path3272" class="cls-9" d="M657.64,223.27a6.56,6.56,0,0,0,2.91-.61,6.94,6.94,0,0,0,2.14-1.69,8.8,8.8,0,0,0,1.44-2.39,15.29,15.29,0,0,0,.89-2.88l-2.54-.82a14.76,14.76,0,0,1-.59,2.2,6.79,6.79,0,0,1-1,1.87,4.57,4.57,0,0,1-1.44,1.29,4.09,4.09,0,0,1-2,.46,4.26,4.26,0,0,1-2.79-.89,6.62,6.62,0,0,1-1.65-2.3,11.81,11.81,0,0,1-.8-3,23.65,23.65,0,0,1-.21-3,22.55,22.55,0,0,1,.21-3,11,11,0,0,1,.86-2.88,5.69,5.69,0,0,1,1.69-2.14,4.26,4.26,0,0,1,2.75-.86,3.8,3.8,0,0,1,1.69.34,3.44,3.44,0,0,1,1.25.95,4.4,4.4,0,0,1,.89,1.41,11,11,0,0,1,.62,1.81l2.6-.71a12.19,12.19,0,0,0-1-2.54,6.91,6.91,0,0,0-1.47-2,5.92,5.92,0,0,0-2-1.32,6.42,6.42,0,0,0-2.58-.49,6.6,6.6,0,0,0-3.92,1.1,8.51,8.51,0,0,0-2.54,2.76,12,12,0,0,0-1.35,3.71,19.25,19.25,0,0,0-.4,3.86,22.74,22.74,0,0,0,.37,4,11.81,11.81,0,0,0,1.32,3.77,8.2,8.2,0,0,0,2.54,2.82,6.9,6.9,0,0,0,4,1.1"/></g><g id="g3274"><path id="path3276" class="cls-9" d="M675.52,202.65a4.25,4.25,0,0,1,2.76.89,6.21,6.21,0,0,1,1.75,2.27,10.78,10.78,0,0,1,1,2.94,18,18,0,0,1,.27,3,18.33,18.33,0,0,1-.27,3,9.8,9.8,0,0,1-.92,2.91,6.56,6.56,0,0,1-1.81,2.2,4.4,4.4,0,0,1-2.79.86,4.34,4.34,0,0,1-2.72-.83,6.1,6.1,0,0,1-1.78-2.11,10.34,10.34,0,0,1-1-2.82,16,16,0,0,1-.28-2.94c0-.57,0-1.19.06-1.84a18.65,18.65,0,0,1,.25-2,10.09,10.09,0,0,1,.52-1.87,5.42,5.42,0,0,1,.89-1.56,6.39,6.39,0,0,1,1.81-1.57,4.48,4.48,0,0,1,2.29-.58m-.06,20.62a7,7,0,0,0,2.79-.52,6.73,6.73,0,0,0,2.18-1.35,9.1,9.1,0,0,0,1.62-2,10.73,10.73,0,0,0,1.07-2.42,15,15,0,0,0,.62-2.63,17,17,0,0,0,.21-2.61,17.78,17.78,0,0,0-.46-3.92,12.11,12.11,0,0,0-1.44-3.77,8.46,8.46,0,0,0-2.6-2.82,6.72,6.72,0,0,0-4-1.13,7.43,7.43,0,0,0-2.88.52,7.11,7.11,0,0,0-2.2,1.44,9,9,0,0,0-1.6,2.08,13,13,0,0,0-1,2.48,16.42,16.42,0,0,0-.58,2.7A24.72,24.72,0,0,0,667,212a17,17,0,0,0,.46,3.86,12.48,12.48,0,0,0,1.5,3.64,8.59,8.59,0,0,0,2.6,2.73,6.71,6.71,0,0,0,3.86,1.07"/></g><g id="g3278"><path id="path3280" class="cls-9" d="M698.57,222.91h2.64V200.47h-2.58v16.67l-8.82-16.67H687.2v22.44h2.58V206.24Z"/></g><g id="g3282"><path id="path3284" class="cls-9" d="M712.75,202.65a4.29,4.29,0,0,1,2.76.89,6.32,6.32,0,0,1,1.75,2.27,10.78,10.78,0,0,1,1,2.94,18,18,0,0,1,.27,3,18.33,18.33,0,0,1-.27,3,10.1,10.1,0,0,1-.92,2.91,6.68,6.68,0,0,1-1.81,2.2,4.44,4.44,0,0,1-2.79.86,4.39,4.39,0,0,1-2.73-.83,6.19,6.19,0,0,1-1.77-2.11,10.7,10.7,0,0,1-1-2.82,16.92,16.92,0,0,1-.27-2.94c0-.57,0-1.19.06-1.84a14.62,14.62,0,0,1,.25-2,10.09,10.09,0,0,1,.52-1.87,5.42,5.42,0,0,1,.89-1.56,6.49,6.49,0,0,1,1.8-1.57,4.52,4.52,0,0,1,2.3-.58m-.06,20.62a7,7,0,0,0,2.79-.52,6.58,6.58,0,0,0,2.17-1.35,8.87,8.87,0,0,0,1.63-2,11.2,11.2,0,0,0,1.07-2.42,14.13,14.13,0,0,0,.61-2.63,17,17,0,0,0,.22-2.61,18.4,18.4,0,0,0-.46-3.92,12.11,12.11,0,0,0-1.44-3.77,8.49,8.49,0,0,0-2.61-2.82,6.69,6.69,0,0,0-3.95-1.13,7.43,7.43,0,0,0-2.88.52,7.15,7.15,0,0,0-2.21,1.44,9.24,9.24,0,0,0-1.59,2.08,12.37,12.37,0,0,0-1,2.48,16.42,16.42,0,0,0-.58,2.7,22.47,22.47,0,0,0-.16,2.67,17.58,17.58,0,0,0,.46,3.86,13,13,0,0,0,1.5,3.64,8.73,8.73,0,0,0,2.61,2.73,6.71,6.71,0,0,0,3.86,1.07"/></g><g id="g3286"><path id="path3288" class="cls-9" d="M732.09,223.27a6.56,6.56,0,0,0,2.91-.61,6.83,6.83,0,0,0,2.14-1.69,8.32,8.32,0,0,0,1.44-2.39,14.59,14.59,0,0,0,.89-2.88l-2.54-.82a14.75,14.75,0,0,1-.58,2.2,7.07,7.07,0,0,1-1,1.87,4.68,4.68,0,0,1-1.44,1.29,4.14,4.14,0,0,1-2,.46,4.22,4.22,0,0,1-2.79-.89,6.51,6.51,0,0,1-1.66-2.3,11.39,11.39,0,0,1-.79-3,22.05,22.05,0,0,1-.22-3,21,21,0,0,1,.22-3,11,11,0,0,1,.85-2.88,5.69,5.69,0,0,1,1.69-2.14,4.27,4.27,0,0,1,2.76-.86,3.79,3.79,0,0,1,1.68.34,3.56,3.56,0,0,1,1.26.95,4.58,4.58,0,0,1,.89,1.41,11,11,0,0,1,.61,1.81l2.6-.71a11.66,11.66,0,0,0-1-2.54,6.56,6.56,0,0,0-1.47-2,5.82,5.82,0,0,0-2-1.32,6.33,6.33,0,0,0-2.57-.49,6.58,6.58,0,0,0-3.92,1.1,8.54,8.54,0,0,0-2.55,2.76,12.54,12.54,0,0,0-1.35,3.71,20,20,0,0,0-.39,3.86,23.68,23.68,0,0,0,.36,4,12.31,12.31,0,0,0,1.32,3.77,8.2,8.2,0,0,0,2.54,2.82,6.93,6.93,0,0,0,4.05,1.1"/></g><path id="path3290" class="cls-9" d="M742.63,222.91h2.63V200.48h-2.63Z"/><g id="g3292"><path id="path3294" class="cls-9" d="M763.37,222.91h2.7V200.47h-3.4c-.25.92-.52,1.94-.83,3s-.62,2.21-1,3.37-.65,2.29-1,3.43-.6,2.2-.89,3.22-.54,1.9-.76,2.69-.41,1.44-.56,1.91c-.12-.47-.29-1.11-.52-1.91s-.48-1.72-.76-2.72-.55-2.08-.86-3.22-.61-2.29-.92-3.43-.61-2.27-.92-3.37-.55-2.11-.8-3h-3.77v22.44h2.64v-17.1l4.6,17.1h2.48l4.5-16.49v16.49"/></g><path id="path3296" class="cls-9" d="M770.51,222.91h2.64V200.48h-2.64Z"/><g id="g3298"><path id="path3300" class="cls-9" d="M777.2,222.91h13.27v-2.58H779.83v-7.72h8.86V210h-8.86v-7h10.24v-2.58H777.2Z"/></g><g id="g3302"><path id="path3304" class="cls-9" d="M804.93,222.91h2.63V200.47H805v16.67l-8.83-16.67h-2.6v22.44h2.57V206.24Z"/></g><g id="g3306"><path id="path3308" class="cls-9" d="M818.37,203.05h5.73v-2.57H810v2.57h5.7v19.86h2.63Z"/></g><g id="g3310"><path id="path3312" class="cls-9" d="M834.65,202.65a4.29,4.29,0,0,1,2.76.89,6.29,6.29,0,0,1,1.74,2.27,10.45,10.45,0,0,1,1,2.94,17,17,0,0,1,.28,3,17.36,17.36,0,0,1-.28,3,9.8,9.8,0,0,1-.92,2.91,6.65,6.65,0,0,1-1.8,2.2,4.44,4.44,0,0,1-2.79.86,4.37,4.37,0,0,1-2.73-.83,6.1,6.1,0,0,1-1.78-2.11,10.69,10.69,0,0,1-1-2.82,16.92,16.92,0,0,1-.27-2.94c0-.57,0-1.19.06-1.84a16.38,16.38,0,0,1,.24-2,11.92,11.92,0,0,1,.52-1.87,5.93,5.93,0,0,1,.89-1.56,6.52,6.52,0,0,1,1.81-1.57,4.52,4.52,0,0,1,2.3-.58m-.06,20.62a7,7,0,0,0,2.79-.52,6.69,6.69,0,0,0,2.17-1.35,8.83,8.83,0,0,0,1.62-2,11.23,11.23,0,0,0,1.08-2.42,15,15,0,0,0,.61-2.63,17,17,0,0,0,.22-2.61,18.4,18.4,0,0,0-.46-3.92,11.88,11.88,0,0,0-1.45-3.77,8.46,8.46,0,0,0-2.6-2.82,6.69,6.69,0,0,0-4-1.13,7.4,7.4,0,0,0-2.88.52,7,7,0,0,0-2.21,1.44,9.24,9.24,0,0,0-1.59,2.08,12.37,12.37,0,0,0-1,2.48,17.55,17.55,0,0,0-.59,2.7,24.72,24.72,0,0,0-.15,2.67,17,17,0,0,0,.46,3.86,13,13,0,0,0,1.5,3.64,8.51,8.51,0,0,0,2.61,2.73,6.69,6.69,0,0,0,3.86,1.07"/></g><g id="g3314"><path id="path3316" class="cls-9" d="M248.41,172h8v-2.18H246.17v19h2.24v-8.66h6.9V178h-6.9Z"/></g><g id="g3318"><path id="path3320" class="cls-9" d="M258.55,188.81h11.26v-2.18h-9v-6.56h7.51v-2.19h-7.51V172h8.69v-2.18H258.55Z"/></g><g id="g3322"><path id="path3324" class="cls-9" d="M279.74,172.37a3.17,3.17,0,0,1,1.3,1.22,5.72,5.72,0,0,1,.78,1.74,9.74,9.74,0,0,1,.37,1.95,18.42,18.42,0,0,1,.1,1.88c0,.61,0,1.27-.1,2a10.32,10.32,0,0,1-.39,2.08,6.43,6.43,0,0,1-.84,1.82,3.09,3.09,0,0,1-1.4,1.2,4.5,4.5,0,0,1-1.09.29c-.39,0-.77,0-1.15,0h-3V172h2.92a11.43,11.43,0,0,1,1.27.07,3.17,3.17,0,0,1,1.2.32m2,15.14a5.56,5.56,0,0,0,1.36-1.71,11.72,11.72,0,0,0,.86-2.16,17.1,17.1,0,0,0,.44-2.29,18.87,18.87,0,0,0,.13-2.16,21.14,21.14,0,0,0-.18-2.63,10.75,10.75,0,0,0-.71-2.73,7.48,7.48,0,0,0-1.4-2.35A4.62,4.62,0,0,0,280,170a4.82,4.82,0,0,0-1.33-.24l-1.32,0h-5.21v19.05h5.47a9.62,9.62,0,0,0,2.18-.26,4.92,4.92,0,0,0,2-1"/></g><g id="g3326"><path id="path3328" class="cls-9" d="M286.8,188.81h11.27v-2.18h-9v-6.56h7.52v-2.19H289V172h8.69v-2.18H286.8Z"/></g><g id="g3330"><path id="path3332" class="cls-9" d="M307.14,171.85a2.9,2.9,0,0,1,2.24.83,3.16,3.16,0,0,1,.78,2.29,3,3,0,0,1-.94,2.47,4,4,0,0,1-2.55.73h-4v-6.32h4.5m3.82,17h2.79L311,183.43a12.92,12.92,0,0,0-1.1-1.82,6.22,6.22,0,0,0-1.48-1.51,5,5,0,0,0,2.91-1.75,5.32,5.32,0,0,0,1-3.35,6.49,6.49,0,0,0-.65-2.87,4.35,4.35,0,0,0-.89-1.24,3.31,3.31,0,0,0-1.09-.71,4.86,4.86,0,0,0-1.27-.34,13.36,13.36,0,0,0-1.46-.07h-6.64v19h2.24v-8.48h1.82a4.3,4.3,0,0,1,1,.1,2.23,2.23,0,0,1,.86.47,4.89,4.89,0,0,1,.7.89c.28.4.58.87.89,1.4s.66,1.09,1,1.69.63,1.16.91,1.7.51,1,.7,1.4l.44.83"/></g><g id="g3334"><path id="path3336" class="cls-9" d="M322.5,173c.35,1.34.72,2.67,1.12,4l1.2,4h-4.51q.6-2,1.2-3.93a39.11,39.11,0,0,0,1-4m4.76,15.82h2.58l-6.17-19h-2.29l-5.77,19H318l1.61-5.69h5.9l1.72,5.69"/></g><g id="g3338"><path id="path3340" class="cls-9" d="M337.37,189.13a5.65,5.65,0,0,0,2.47-.52,6,6,0,0,0,1.82-1.44,7.48,7.48,0,0,0,1.23-2,12.86,12.86,0,0,0,.75-2.45l-2.16-.7a13.11,13.11,0,0,1-.49,1.87,6,6,0,0,1-.84,1.59,3.76,3.76,0,0,1-1.22,1.09,3.51,3.51,0,0,1-1.69.39,3.57,3.57,0,0,1-2.37-.76,5.48,5.48,0,0,1-1.4-2,9.75,9.75,0,0,1-.68-2.52,20,20,0,0,1-.18-2.58,18.9,18.9,0,0,1,.18-2.52,9.18,9.18,0,0,1,.73-2.45,4.88,4.88,0,0,1,1.43-1.82,3.67,3.67,0,0,1,2.34-.73,3.28,3.28,0,0,1,1.43.29,3,3,0,0,1,1.07.81,3.89,3.89,0,0,1,.75,1.19,9.27,9.27,0,0,1,.53,1.54l2.21-.6a10.32,10.32,0,0,0-.84-2.16,5.76,5.76,0,0,0-1.25-1.69,4.85,4.85,0,0,0-1.69-1.12,5.4,5.4,0,0,0-2.18-.41,5.64,5.64,0,0,0-3.33.93,7.13,7.13,0,0,0-2.16,2.34,10.68,10.68,0,0,0-1.15,3.15,17.16,17.16,0,0,0-.34,3.28,19.56,19.56,0,0,0,.32,3.43,10.35,10.35,0,0,0,1.11,3.21,7,7,0,0,0,2.16,2.39,6,6,0,0,0,3.44.94"/></g><path id="path3342" class="cls-9" d="M345.94,188.81h2.24v-19h-2.24Z"/><g id="g3344"><path id="path3346" class="cls-9" d="M357.83,171.61a3.61,3.61,0,0,1,2.34.76,5.16,5.16,0,0,1,1.48,1.92,8.94,8.94,0,0,1,.81,2.5,14.6,14.6,0,0,1,.24,2.55,14.75,14.75,0,0,1-.24,2.58,8.49,8.49,0,0,1-.78,2.47,5.39,5.39,0,0,1-1.54,1.87,3.69,3.69,0,0,1-2.36.73,3.76,3.76,0,0,1-2.32-.7,5.31,5.31,0,0,1-1.51-1.8,8.78,8.78,0,0,1-.83-2.39,13.8,13.8,0,0,1-.24-2.5q0-.72.06-1.56a11.83,11.83,0,0,1,.21-1.69,9.33,9.33,0,0,1,.44-1.59,4.72,4.72,0,0,1,.75-1.32,5.51,5.51,0,0,1,1.54-1.33,3.82,3.82,0,0,1,1.95-.5m-.05,17.52a5.88,5.88,0,0,0,2.36-.45,5.7,5.7,0,0,0,1.85-1.14,7.67,7.67,0,0,0,1.38-1.72,9.29,9.29,0,0,0,.91-2.06,12,12,0,0,0,.52-2.23,14.3,14.3,0,0,0,.18-2.21,15.23,15.23,0,0,0-.39-3.33,10.24,10.24,0,0,0-1.22-3.21,7.12,7.12,0,0,0-2.21-2.39,5.74,5.74,0,0,0-3.36-1,6.4,6.4,0,0,0-2.44.44,5.92,5.92,0,0,0-1.88,1.22,8,8,0,0,0-1.35,1.77,10.66,10.66,0,0,0-.88,2.11,13.75,13.75,0,0,0-.5,2.29,19.65,19.65,0,0,0-.13,2.26,14.52,14.52,0,0,0,.39,3.28,10.78,10.78,0,0,0,1.28,3.1,7.42,7.42,0,0,0,2.21,2.32,5.78,5.78,0,0,0,3.28.91m.6-20.51,2.18-3.54H357.8l-1.35,3.54h1.93"/></g><g id="g3348"><path id="path3350" class="cls-9" d="M376.65,188.81h2.24v-19H376.7v14.15l-7.49-14.15H367v19h2.18V174.66Z"/></g><g id="g3352"><path id="path3354" class="cls-9" d="M392.73,173c.35,1.34.72,2.67,1.13,4s.79,2.64,1.19,4h-4.5q.6-2,1.2-3.93a36.63,36.63,0,0,0,1-4m4.77,15.82h2.57l-6.16-19h-2.29l-5.78,19h2.42l1.61-5.69h5.91l1.72,5.69"/></g><g id="g3356"><path id="path3358" class="cls-9" d="M409.09,171.85a2.9,2.9,0,0,1,2.24.83,3.16,3.16,0,0,1,.78,2.29,3,3,0,0,1-.94,2.47,4,4,0,0,1-2.55.73h-4v-6.32h4.5m3.82,17h2.79L413,183.43a12.89,12.89,0,0,0-1.09-1.82,6.22,6.22,0,0,0-1.48-1.51,5,5,0,0,0,2.91-1.75,5.32,5.32,0,0,0,1-3.35,6.49,6.49,0,0,0-.65-2.87,4.35,4.35,0,0,0-.89-1.24,3.31,3.31,0,0,0-1.09-.71,4.93,4.93,0,0,0-1.28-.34,13.17,13.17,0,0,0-1.45-.07h-6.64v19h2.24v-8.48h1.82a4.36,4.36,0,0,1,1,.1,2.31,2.31,0,0,1,.86.47,5.38,5.38,0,0,1,.7.89c.28.4.58.87.89,1.4s.66,1.09,1,1.69.63,1.16.91,1.7.51,1,.7,1.4.35.68.44.83"/></g><g id="g3360"><path id="path3362" class="cls-9" d="M430.15,186.29h.23v-7.16l-6.58,0v2.14h4.35V185a5.87,5.87,0,0,1-4.14,1.82,4.48,4.48,0,0,1-2.55-.67,5.19,5.19,0,0,1-1.62-1.8,8.46,8.46,0,0,1-.85-2.42,15.08,15.08,0,0,1,0-5.36,8.55,8.55,0,0,1,.85-2.45,5.12,5.12,0,0,1,1.59-1.77,4.45,4.45,0,0,1,2.55-.7,4,4,0,0,1,1.64.31,3.42,3.42,0,0,1,1.2.89,4.66,4.66,0,0,1,.81,1.38,13.27,13.27,0,0,1,.54,1.74l2-.68a10.36,10.36,0,0,0-.76-2.36,5.79,5.79,0,0,0-1.22-1.85,4.87,4.87,0,0,0-1.77-1.2,6.7,6.7,0,0,0-2.44-.41,6.42,6.42,0,0,0-3.52.91,7.08,7.08,0,0,0-2.31,2.31,10.27,10.27,0,0,0-1.28,3.2,17.6,17.6,0,0,0-.36,3.52,14.78,14.78,0,0,0,.42,3.48,9.39,9.39,0,0,0,1.32,3.12,7.78,7.78,0,0,0,2.37,2.27,6.88,6.88,0,0,0,3.54.86,5.85,5.85,0,0,0,2.11-.39,11.24,11.24,0,0,0,1.92-.91v1h2.19v-2.74l-.21.21"/></g><g id="g3364"><path id="path3366" class="cls-9" d="M432.81,188.81h11.27v-2.18h-9v-6.56h7.52v-2.19h-7.52V172h8.69v-2.18H432.81Z"/></g><g id="g3368"><path id="path3370" class="cls-9" d="M456,188.81h2.24v-19H456v14.15l-7.5-14.15h-2.21v19h2.19V174.66Z"/></g><g id="g3372"><path id="path3374" class="cls-9" d="M467,172h4.86v-2.18H460V172h4.84v16.86H467Z"/></g><path id="path3376" class="cls-9" d="M473.86,188.81h2.24v-19h-2.24Z"/><g id="g3378"><path id="path3380" class="cls-9" d="M488.76,188.81H491v-19h-2.18v14.15l-7.5-14.15h-2.21v19h2.19V174.66Z"/></g><g id="g3382"><path id="path3384" class="cls-9" d="M500.17,173c.35,1.34.72,2.67,1.12,4l1.2,4H498c.4-1.32.79-2.63,1.19-3.93a39.11,39.11,0,0,0,1-4m4.76,15.82h2.58l-6.17-19h-2.29l-5.77,19h2.42l1.61-5.69h5.91l1.71,5.69"/></g><g id="g3386"><path id="path3388" class="cls-9" d="M522,172.37a3.24,3.24,0,0,1,1.3,1.22,6.25,6.25,0,0,1,.78,1.74,9.07,9.07,0,0,1,.36,1.95,18.6,18.6,0,0,1,.11,1.88c0,.61,0,1.27-.11,2a9.1,9.1,0,0,1-.39,2.08,6.7,6.7,0,0,1-.83,1.82,3.17,3.17,0,0,1-1.41,1.2,4.38,4.38,0,0,1-1.09.29c-.38,0-.76,0-1.14,0h-3V172h2.91a11.6,11.6,0,0,1,1.28.07,3.22,3.22,0,0,1,1.2.32m2,15.14a5.39,5.39,0,0,0,1.35-1.71,11.05,11.05,0,0,0,.86-2.16,14.43,14.43,0,0,0,.44-2.29,18.87,18.87,0,0,0,.13-2.16,21.14,21.14,0,0,0-.18-2.63,10.74,10.74,0,0,0-.7-2.73,7.7,7.7,0,0,0-1.41-2.35,4.62,4.62,0,0,0-2.29-1.45,4.68,4.68,0,0,0-1.32-.24l-1.33,0h-5.2v19.05h5.46a9.63,9.63,0,0,0,2.19-.26,5,5,0,0,0,2-1"/></g><g id="g3390"><path id="path3392" class="cls-9" d="M529.07,188.81h11.27v-2.18h-9v-6.56h7.52v-2.19h-7.52V172H540v-2.18H529.07Z"/></g><g id="g3394"><path id="path3396" class="cls-9" d="M554.88,189.13a5.69,5.69,0,0,0,2.48-.52,6,6,0,0,0,1.82-1.44,7.45,7.45,0,0,0,1.22-2,13.65,13.65,0,0,0,.76-2.45L559,182a11.91,11.91,0,0,1-.5,1.87,6,6,0,0,1-.83,1.59,4,4,0,0,1-1.22,1.09,4,4,0,0,1-4.06-.37,5.63,5.63,0,0,1-1.41-2,10.16,10.16,0,0,1-.68-2.52,20,20,0,0,1-.18-2.58,18.9,18.9,0,0,1,.18-2.52,9.56,9.56,0,0,1,.73-2.45,5,5,0,0,1,1.43-1.82,3.68,3.68,0,0,1,2.35-.73,3.32,3.32,0,0,1,1.43.29,3,3,0,0,1,1.06.81,3.73,3.73,0,0,1,.76,1.19,9.27,9.27,0,0,1,.52,1.54l2.21-.6a10.3,10.3,0,0,0-.83-2.16,5.94,5.94,0,0,0-1.25-1.69,5,5,0,0,0-1.69-1.12,5.42,5.42,0,0,0-2.19-.41,5.69,5.69,0,0,0-3.33.93,7.34,7.34,0,0,0-2.16,2.34,10.4,10.4,0,0,0-1.14,3.15,16.39,16.39,0,0,0-.34,3.28,19.52,19.52,0,0,0,.31,3.43,10.36,10.36,0,0,0,1.12,3.21,7,7,0,0,0,2.16,2.39,5.93,5.93,0,0,0,3.43.94"/></g><g id="g3398"><path id="path3400" class="cls-9" d="M569.7,171.61a3.61,3.61,0,0,1,2.34.76,5.29,5.29,0,0,1,1.49,1.92,8.92,8.92,0,0,1,.8,2.5,14.6,14.6,0,0,1,.24,2.55,14.75,14.75,0,0,1-.24,2.58,7.93,7.93,0,0,1-.78,2.47,5.48,5.48,0,0,1-1.53,1.87,4.2,4.2,0,0,1-4.69,0,5.28,5.28,0,0,1-1.5-1.8,8.79,8.79,0,0,1-.84-2.39,14.71,14.71,0,0,1-.23-2.5c0-.48,0-1,0-1.56a11.83,11.83,0,0,1,.21-1.69,9.33,9.33,0,0,1,.44-1.59,4.51,4.51,0,0,1,.76-1.32,5.47,5.47,0,0,1,1.53-1.33,3.82,3.82,0,0,1,2-.5m-.05,17.52a5.93,5.93,0,0,0,2.37-.45,5.7,5.7,0,0,0,1.85-1.14,7.92,7.92,0,0,0,1.37-1.72,9.32,9.32,0,0,0,.92-2.06,12.91,12.91,0,0,0,.52-2.23,14.3,14.3,0,0,0,.18-2.21,15.23,15.23,0,0,0-.39-3.33,10,10,0,0,0-1.23-3.21,7.12,7.12,0,0,0-2.21-2.39,5.71,5.71,0,0,0-3.35-1,6.45,6.45,0,0,0-2.45.44,5.77,5.77,0,0,0-1.87,1.22,8.32,8.32,0,0,0-1.36,1.77,11.29,11.29,0,0,0-.88,2.11,13.73,13.73,0,0,0-.49,2.29,19.71,19.71,0,0,0-.14,2.26,14.55,14.55,0,0,0,.4,3.28,10.76,10.76,0,0,0,1.27,3.1,7.42,7.42,0,0,0,2.21,2.32,5.8,5.8,0,0,0,3.28.91"/></g><g id="g3402"><path id="path3404" class="cls-9" d="M586.32,171.61a3.61,3.61,0,0,1,2.34.76,5.29,5.29,0,0,1,1.49,1.92,8.92,8.92,0,0,1,.8,2.5,14.6,14.6,0,0,1,.24,2.55,14.75,14.75,0,0,1-.24,2.58,8.49,8.49,0,0,1-.78,2.47,5.48,5.48,0,0,1-1.53,1.87,4.2,4.2,0,0,1-4.69,0,5.42,5.42,0,0,1-1.51-1.8,9.13,9.13,0,0,1-.83-2.39,14.71,14.71,0,0,1-.23-2.5c0-.48,0-1,0-1.56a11.83,11.83,0,0,1,.21-1.69,9.33,9.33,0,0,1,.44-1.59,4.72,4.72,0,0,1,.75-1.32,5.51,5.51,0,0,1,1.54-1.33,3.82,3.82,0,0,1,2-.5m-.05,17.52a6,6,0,0,0,2.37-.45,5.66,5.66,0,0,0,1.84-1.14,7.67,7.67,0,0,0,1.38-1.72,9.32,9.32,0,0,0,.92-2.06,12,12,0,0,0,.51-2.23,13.2,13.2,0,0,0,.19-2.21,15.23,15.23,0,0,0-.39-3.33,10.25,10.25,0,0,0-1.23-3.21,7.12,7.12,0,0,0-2.21-2.39,5.73,5.73,0,0,0-3.35-1,6.45,6.45,0,0,0-2.45.44,5.77,5.77,0,0,0-1.87,1.22,8.32,8.32,0,0,0-1.36,1.77,10.66,10.66,0,0,0-.88,2.11,14.84,14.84,0,0,0-.5,2.29,22.19,22.19,0,0,0-.13,2.26,14.52,14.52,0,0,0,.39,3.28,11.07,11.07,0,0,0,1.28,3.1,7.42,7.42,0,0,0,2.21,2.32,5.8,5.8,0,0,0,3.28.91"/></g><g id="g3406"><path id="path3408" class="cls-9" d="M603.17,172.13a1.71,1.71,0,0,1,.73.5,2.58,2.58,0,0,1,.49.78,3.58,3.58,0,0,1,.29,1,6.45,6.45,0,0,1,.08,1,3.15,3.15,0,0,1-1.1,2.6,4.43,4.43,0,0,1-2.86.86h-3V172h3.62l.88,0a2.57,2.57,0,0,1,.89.13m2.6,7.25a5.73,5.73,0,0,0,1-1.95,8,8,0,0,0,.29-2.13,7.39,7.39,0,0,0-.47-2.6,4.65,4.65,0,0,0-.94-1.54,3.4,3.4,0,0,0-1.22-.91,4.49,4.49,0,0,0-1.48-.39,13.38,13.38,0,0,0-1.72-.1h-5.67v19h2.24v-7.72h2.91c.38,0,.82,0,1.3-.06a9.73,9.73,0,0,0,1.43-.26,5.55,5.55,0,0,0,1.36-.52,3,3,0,0,0,1-.86"/></g><g id="g3410"><path id="path3412" class="cls-9" d="M609.11,188.81h11.27v-2.18h-9v-6.56h7.52v-2.19h-7.52V172H620v-2.18H609.11Z"/></g><g id="g3414"><path id="path3416" class="cls-9" d="M629.45,171.85a2.9,2.9,0,0,1,2.24.83,3.16,3.16,0,0,1,.78,2.29,3,3,0,0,1-.94,2.47,4,4,0,0,1-2.55.73h-4v-6.32h4.5m3.82,17h2.79l-2.74-5.38a12,12,0,0,0-1.09-1.82,6.22,6.22,0,0,0-1.48-1.51,5,5,0,0,0,2.91-1.75,5.32,5.32,0,0,0,1-3.35,6.49,6.49,0,0,0-.65-2.87,4.35,4.35,0,0,0-.89-1.24,3.31,3.31,0,0,0-1.09-.71,4.82,4.82,0,0,0-1.28-.34,13.17,13.17,0,0,0-1.45-.07h-6.64v19h2.24v-8.48h1.82a4.3,4.3,0,0,1,1,.1,2.23,2.23,0,0,1,.86.47,4.89,4.89,0,0,1,.7.89c.28.4.58.87.89,1.4s.66,1.09,1,1.69.63,1.16.91,1.7.51,1,.7,1.4l.44.83"/></g><g id="g3418"><path id="path3420" class="cls-9" d="M644.81,173c.35,1.34.72,2.67,1.12,4l1.2,4h-4.51q.6-2,1.2-3.93a39.11,39.11,0,0,0,1-4m4.76,15.82h2.58l-6.17-19h-2.29l-5.78,19h2.42l1.62-5.69h5.9l1.72,5.69"/></g><g id="g3422"><path id="path3424" class="cls-9" d="M656.8,172h4.86v-2.18H649.72V172h4.84v16.86h2.24Z"/></g><path id="path3426" class="cls-9" d="M663.63,188.81h2.23v-19h-2.23Z"/><g id="g3428"><path id="path3430" class="cls-9" d="M676.17,188.81l5.88-19h-2.34l-4,13.66c-.12.4-.23.79-.34,1.17s-.2.77-.31,1.17c-.09-.38-.18-.76-.29-1.14s-.18-.76-.28-1.13l-3.91-13.73h-2.44l5.83,19h2.21"/></g><g id="g3432"><path id="path3434" class="cls-9" d="M686.18,173c.34,1.34.72,2.67,1.12,4s.79,2.64,1.19,4H684q.6-2,1.2-3.93a39.11,39.11,0,0,0,1-4m4.76,15.82h2.58l-6.17-19h-2.29l-5.78,19h2.42l1.62-5.69h5.9l1.72,5.69"/></g><g id="g3436"><path id="path3438" class="cls-9" d="M700.29,189.13a5.54,5.54,0,0,0,2.27-.45,5.44,5.44,0,0,0,1.74-1.19,5.12,5.12,0,0,0,1.14-1.8,6,6,0,0,0,.42-2.26,5.78,5.78,0,0,0-.42-2.35,4.65,4.65,0,0,0-1.09-1.56,5.59,5.59,0,0,0-1.53-1,17,17,0,0,0-1.75-.67l-.88-.26-.81-.26-1-.39a3.65,3.65,0,0,1-.88-.52,3.22,3.22,0,0,1-.65-.78,2.51,2.51,0,0,1-.24-1.15,2.44,2.44,0,0,1,.91-2.11,3.74,3.74,0,0,1,2.29-.67,3.17,3.17,0,0,1,2.47.88,4.51,4.51,0,0,1,1,2.68l2.1-.23a5.64,5.64,0,0,0-1.61-4.14,5.54,5.54,0,0,0-4-1.46,5.61,5.61,0,0,0-2.13.39,4.66,4.66,0,0,0-1.66,1.07,4.9,4.9,0,0,0-1.1,1.69,6,6,0,0,0-.36,2.14,5.32,5.32,0,0,0,.41,2.21,4.58,4.58,0,0,0,1.1,1.48,6.29,6.29,0,0,0,1.56.94c.57.22,1.14.42,1.72.6l.85.26c.28.08.56.18.84.28A9.4,9.4,0,0,1,702,181a3,3,0,0,1,.89.6,2.41,2.41,0,0,1,.6.89,2.8,2.8,0,0,1,.23,1.19,3,3,0,0,1-1,2.4,3.9,3.9,0,0,1-2.52.8,4,4,0,0,1-3-1.09,5.43,5.43,0,0,1-1.22-3.2l-2,.23a6.36,6.36,0,0,0,1.75,4.71,6.42,6.42,0,0,0,4.6,1.62"/></g><g id="g3440"><path id="path3442" class="cls-9" d="M721.58,172.37a3.17,3.17,0,0,1,1.3,1.22,5.72,5.72,0,0,1,.78,1.74,9.74,9.74,0,0,1,.37,1.95,18.42,18.42,0,0,1,.1,1.88c0,.61,0,1.27-.1,2a9.67,9.67,0,0,1-.39,2.08,6.43,6.43,0,0,1-.84,1.82,3.09,3.09,0,0,1-1.4,1.2,4.5,4.5,0,0,1-1.09.29c-.39,0-.77,0-1.15,0h-3V172h2.92a11.43,11.43,0,0,1,1.27.07,3.22,3.22,0,0,1,1.2.32m2,15.14a5.56,5.56,0,0,0,1.36-1.71,11.72,11.72,0,0,0,.86-2.16,17.1,17.1,0,0,0,.44-2.29,21.46,21.46,0,0,0,.13-2.16,21.14,21.14,0,0,0-.18-2.63,10.75,10.75,0,0,0-.71-2.73,7.68,7.68,0,0,0-1.4-2.35,4.62,4.62,0,0,0-2.29-1.45,4.82,4.82,0,0,0-1.33-.24l-1.33,0h-5.2v19.05h5.47a9.62,9.62,0,0,0,2.18-.26,4.92,4.92,0,0,0,2-1"/></g><g id="g3444"><path id="path3446" class="cls-9" d="M728.64,188.81h11.27v-2.18h-9v-6.56h7.52v-2.19h-7.52V172h8.69v-2.18H728.64Z"/></g><g id="g3448"><path id="path3450" class="cls-9" d="M754,172h4.86v-2.18H746.89V172h4.84v16.86H754Z"/></g><g id="g3452"><path id="path3454" class="cls-9" d="M767.23,171.85a2.88,2.88,0,0,1,2.23.83,3.16,3.16,0,0,1,.78,2.29,3,3,0,0,1-.93,2.47,4,4,0,0,1-2.55.73h-4v-6.32h4.51m3.82,17h2.78l-2.73-5.38a12.89,12.89,0,0,0-1.09-1.82,6.4,6.4,0,0,0-1.48-1.51,5,5,0,0,0,2.91-1.75,5.32,5.32,0,0,0,1-3.35,6.36,6.36,0,0,0-.65-2.87,4.33,4.33,0,0,0-.88-1.24,3.41,3.41,0,0,0-1.09-.71,4.93,4.93,0,0,0-1.28-.34,13.36,13.36,0,0,0-1.46-.07h-6.63v19h2.24v-8.48h1.82a4.41,4.41,0,0,1,1,.1,2.31,2.31,0,0,1,.86.47,5.38,5.38,0,0,1,.7.89c.28.4.57.87.88,1.4s.66,1.09,1,1.69.64,1.16.91,1.7.52,1,.71,1.4.35.68.44.83"/></g><g id="g3456"><path id="path3458" class="cls-9" d="M782.59,173c.34,1.34.72,2.67,1.12,4s.79,2.64,1.19,4h-4.5q.6-2,1.2-3.93a39.11,39.11,0,0,0,1-4m4.76,15.82h2.57l-6.16-19h-2.29l-5.78,19h2.42l1.61-5.69h5.91l1.72,5.69"/></g><g id="g3460"><path id="path3462" class="cls-9" d="M797.63,180a4.55,4.55,0,0,1,2.76.73,3,3,0,0,1,1,2.57,3.19,3.19,0,0,1-.88,2.55,3.79,3.79,0,0,1-2.58.76h-3.54V180h3.25m-.44-8a7.52,7.52,0,0,1,1.51.13,2.52,2.52,0,0,1,1.07.41,1.88,1.88,0,0,1,.65.91,4.24,4.24,0,0,1,.23,1.51,4,4,0,0,1-.21,1.41,1.78,1.78,0,0,1-.59.86,2.39,2.39,0,0,1-1,.44,6.48,6.48,0,0,1-1.4.13h-3V172h2.81m.7,16.83a6.09,6.09,0,0,0,4.24-1.37,5.43,5.43,0,0,0,1.54-4.22,5.77,5.77,0,0,0-.65-2.68,4.14,4.14,0,0,0-2-1.87A4.43,4.43,0,0,0,802.4,177a5.64,5.64,0,0,0,.44-2.19,4.86,4.86,0,0,0-1.35-3.67,5.05,5.05,0,0,0-3.67-1.32h-5.68v19h5.75"/></g><g id="g3464"><path id="path3466" class="cls-9" d="M811.66,173c.34,1.34.72,2.67,1.11,4l1.2,4h-4.5l1.2-3.93c.4-1.32.72-2.65,1-4m4.76,15.82H819l-6.16-19h-2.29l-5.78,19h2.42l1.61-5.69h5.91l1.72,5.69"/></g><g id="g3468"><path id="path3470" class="cls-9" d="M823.14,189.13a3.69,3.69,0,0,0,2.27-.63,4.16,4.16,0,0,0,1.3-1.56,6.28,6.28,0,0,0,.59-2.11,18.45,18.45,0,0,0,.14-2.16v-12.9H825.2v13.37c0,.38,0,.8,0,1.25a4.07,4.07,0,0,1-.24,1.22,2.25,2.25,0,0,1-.59.94,1.79,1.79,0,0,1-1.2.36,1.66,1.66,0,0,1-1.07-.31,1.88,1.88,0,0,1-.59-.83,4.56,4.56,0,0,1-.29-1.17c0-.45-.06-.9-.08-1.36l-2.05.34V184a10.08,10.08,0,0,0,.18,1.92,5,5,0,0,0,.67,1.67,3.61,3.61,0,0,0,1.25,1.14,3.92,3.92,0,0,0,2,.45"/></g><g id="g3472"><path id="path3474" class="cls-9" d="M836.82,171.61a3.61,3.61,0,0,1,2.34.76,5.16,5.16,0,0,1,1.48,1.92,8.94,8.94,0,0,1,.81,2.5,14.6,14.6,0,0,1,.24,2.55,14.75,14.75,0,0,1-.24,2.58,8.49,8.49,0,0,1-.78,2.47,5.39,5.39,0,0,1-1.54,1.87,3.69,3.69,0,0,1-2.36.73,3.76,3.76,0,0,1-2.32-.7,5.31,5.31,0,0,1-1.51-1.8,8.78,8.78,0,0,1-.83-2.39,13.76,13.76,0,0,1-.23-2.5c0-.48,0-1,0-1.56a11.83,11.83,0,0,1,.21-1.69,9.33,9.33,0,0,1,.44-1.59,4.72,4.72,0,0,1,.75-1.32,5.51,5.51,0,0,1,1.54-1.33,3.82,3.82,0,0,1,2-.5m-.05,17.52a5.88,5.88,0,0,0,2.36-.45,5.6,5.6,0,0,0,1.85-1.14,7.67,7.67,0,0,0,1.38-1.72,9.29,9.29,0,0,0,.91-2.06,11.29,11.29,0,0,0,.52-2.23,14.3,14.3,0,0,0,.18-2.21,15.19,15.19,0,0,0-.38-3.33,10.5,10.5,0,0,0-1.23-3.21,7.12,7.12,0,0,0-2.21-2.39,5.74,5.74,0,0,0-3.36-1,6.4,6.4,0,0,0-2.44.44,5.92,5.92,0,0,0-1.88,1.22,8,8,0,0,0-1.35,1.77,10.66,10.66,0,0,0-.88,2.11,14.84,14.84,0,0,0-.5,2.29,19.65,19.65,0,0,0-.13,2.26,14.52,14.52,0,0,0,.39,3.28,10.78,10.78,0,0,0,1.28,3.1,7.42,7.42,0,0,0,2.21,2.32,5.78,5.78,0,0,0,3.28.91"/></g><path id="path3014" class="cls-10" d="M58.27,224.18H32.93V198.84H58.27Z"/><path id="path3016" class="cls-10" d="M91.2,224.18H65.87V198.84H91.2Z"/><path id="path3018" class="cls-10" d="M124.13,224.18H98.8V198.84h25.33Z"/><path id="path3020" class="cls-10" d="M157.07,224.18H131.73V198.84h25.34Z"/><path id="path3022" class="cls-10" d="M190,224.18H164.67V198.84H190Z"/><path id="path3024" class="cls-10" d="M222.93,224.18H197.6V198.84h25.33Z"/><g id="g3034"><path id="path3036" class="cls-3" d="M59.66,178.58A14.06,14.06,0,1,1,45.6,164.52a14,14,0,0,1,14.06,14.06"/></g><path id="path3038" class="cls-10" d="M91.2,191.25H65.87V165.91H91.2Z"/><g id="g3040"><path id="path3042" class="cls-4" d="M125.53,178.58a14.07,14.07,0,1,1-14.06-14.06,14,14,0,0,1,14.06,14.06"/></g><path id="path3044" class="cls-10" d="M157.07,191.25H131.73V165.91h25.34Z"/><g id="g3046"><path id="path3048" class="cls-5" d="M191.4,178.58a14.07,14.07,0,1,1-14.07-14.06,14,14,0,0,1,14.07,14.06"/></g><path id="path3050" class="cls-10" d="M222.93,191.25H197.6V165.91h25.33Z"/><path id="path3052" class="cls-10" d="M58.27,158.31H32.93V133H58.27Z"/><path id="path3054" class="cls-10" d="M91.2,158.31H65.87V133H91.2Z"/><path id="path3056" class="cls-10" d="M124.13,158.31H98.8V133h25.33Z"/><path id="path3058" class="cls-10" d="M157.07,158.31H131.73V133h25.34Z"/><path id="path3060" class="cls-10" d="M190,158.31H164.67V133H190Z"/><path id="path3062" class="cls-10" d="M222.93,158.31H197.6V133h25.33Z"/><path id="path3064" class="cls-10" d="M58.27,125.38H32.93V100H58.27Z"/><path id="path3066" class="cls-10" d="M91.2,125.38H65.87V100H91.2Z"/><path id="path3068" class="cls-10" d="M124.13,125.38H98.8V100h25.33Z"/><path id="path3070" class="cls-10" d="M157.07,125.38H131.73V100h25.34Z"/><g id="g3072"><path id="path3074" class="cls-6" d="M191.4,112.71a14.07,14.07,0,1,1-14.07-14.06,14,14,0,0,1,14.07,14.06"/></g><path id="path3076" class="cls-10" d="M222.93,125.38H197.6V100h25.33Z"/><path id="path3078" class="cls-10" d="M58.27,92.44H32.93V67.11H58.27Z"/><path id="path3080" class="cls-10" d="M91.2,92.44H65.87V67.11H91.2Z"/><path id="path3082" class="cls-10" d="M124.13,92.44H98.8V67.11h25.33Z"/><path id="path3084" class="cls-10" d="M157.07,92.44H131.73V67.11h25.34Z"/><path id="path3086" class="cls-10" d="M190,92.44H164.67V67.11H190Z"/><path id="path3088" class="cls-10" d="M222.93,92.44H197.6V67.11h25.33Z"/><path id="path3090" class="cls-10" d="M58.27,59.51H32.93V34.18H58.27Z"/><path id="path3092" class="cls-10" d="M91.2,59.51H65.87V34.18H91.2Z"/><g id="g3094"><path id="path3096" class="cls-7" d="M125.53,46.84a14.07,14.07,0,1,1-14.06-14.06,14,14,0,0,1,14.06,14.06"/></g><path id="path3098" class="cls-10" d="M157.07,59.51H131.73V34.18h25.34Z"/><path id="path3100" class="cls-10" d="M190,59.51H164.67V34.18H190Z"/><path id="path3102" class="cls-10" d="M222.93,59.51H197.6V34.18h25.33Z"/><path id="path3104" class="cls-10" d="M58.27,26.79H32.93V1.45H58.27Z"/><path id="path3106" class="cls-10" d="M91.2,26.79H65.87V1.45H91.2Z"/><path id="path3108" class="cls-10" d="M124.13,26.79H98.8V1.45h25.33Z"/><path id="path3110" class="cls-10" d="M157.07,26.79H131.73V1.45h25.34Z"/><path id="path3112" class="cls-10" d="M190,26.79H164.67V1.45H190Z"/><path id="path3114" class="cls-10" d="M222.93,26.79H197.6V1.45h25.33Z"/><path id="path3116" class="cls-10" d="M25.33,224.18H0V198.84H25.33Z"/><path id="path3118" class="cls-10" d="M25.33,191.25H0V165.91H25.33Z"/><path id="path3120" class="cls-10" d="M25.33,158.31H0V133H25.33Z"/><path id="path3122" class="cls-10" d="M25.33,125.38H0V100H25.33Z"/><path id="path3124" class="cls-10" d="M25.33,92.44H0V67.11H25.33Z"/><path id="path3126" class="cls-10" d="M25.33,59.51H0V34.18H25.33Z"/><path id="path3128" class="cls-10" d="M25.33,26.79H0V1.45H25.33Z"/></g></g></svg>