<?xml version="1.0" standalone="no"?>
<svg xmlns="http://www.w3.org/2000/svg" version="1.1" width="220" height="220">
	<!-- Created with https://api.qrserver.com (QR Code API, see goQR.me/api for information) -->
	<title>QR Code</title>
	<desc>BEGIN:VCARD
VERSION:2.1
FN:Nayra
N:;Nayra
TEL;CELL:+54 9 11 5347 6740
EMAIL;HOME;INTERNET:info@nayra.coop
URL:https://nayra.coop
ADR:;;Wenceslao de Tata 4561 2C;Caseros;;B1678CSB;Argentina
ORG:Nayra Cooperativa
END:VCARD
</desc>
	<rect style="fill:rgb(250, 250, 250);fill-opacity:1" x="0" y="0" width="220" height="220" />
	<g id="elements">
		<path style="fill:rgb(32, 155, 207)" d="M 4,4 l 4,0 0,4 -4,0 z M 8,4 l 4,0 0,4 -4,0 z M 12,4 l 4,0 0,4 -4,0 z M 16,4 l 4,0 0,4 -4,0 z M 20,4 l 4,0 0,4 -4,0 z M 24,4 l 4,0 0,4 -4,0 z M 28,4 l 4,0 0,4 -4,0 z M 44,4 l 4,0 0,4 -4,0 z M 48,4 l 4,0 0,4 -4,0 z M 52,4 l 4,0 0,4 -4,0 z M 56,4 l 4,0 0,4 -4,0 z M 64,4 l 4,0 0,4 -4,0 z M 80,4 l 4,0 0,4 -4,0 z M 84,4 l 4,0 0,4 -4,0 z M 88,4 l 4,0 0,4 -4,0 z M 92,4 l 4,0 0,4 -4,0 z M 100,4 l 4,0 0,4 -4,0 z M 112,4 l 4,0 0,4 -4,0 z M 124,4 l 4,0 0,4 -4,0 z M 136,4 l 4,0 0,4 -4,0 z M 140,4 l 4,0 0,4 -4,0 z M 144,4 l 4,0 0,4 -4,0 z M 152,4 l 4,0 0,4 -4,0 z M 172,4 l 4,0 0,4 -4,0 z M 188,4 l 4,0 0,4 -4,0 z M 192,4 l 4,0 0,4 -4,0 z M 196,4 l 4,0 0,4 -4,0 z M 200,4 l 4,0 0,4 -4,0 z M 204,4 l 4,0 0,4 -4,0 z M 208,4 l 4,0 0,4 -4,0 z M 212,4 l 4,0 0,4 -4,0 z M 4,8 l 4,0 0,4 -4,0 z M 28,8 l 4,0 0,4 -4,0 z M 36,8 l 4,0 0,4 -4,0 z M 56,8 l 4,0 0,4 -4,0 z M 72,8 l 4,0 0,4 -4,0 z M 80,8 l 4,0 0,4 -4,0 z M 84,8 l 4,0 0,4 -4,0 z M 96,8 l 4,0 0,4 -4,0 z M 108,8 l 4,0 0,4 -4,0 z M 124,8 l 4,0 0,4 -4,0 z M 128,8 l 4,0 0,4 -4,0 z M 144,8 l 4,0 0,4 -4,0 z M 152,8 l 4,0 0,4 -4,0 z M 156,8 l 4,0 0,4 -4,0 z M 160,8 l 4,0 0,4 -4,0 z M 172,8 l 4,0 0,4 -4,0 z M 176,8 l 4,0 0,4 -4,0 z M 188,8 l 4,0 0,4 -4,0 z M 212,8 l 4,0 0,4 -4,0 z M 4,12 l 4,0 0,4 -4,0 z M 12,12 l 4,0 0,4 -4,0 z M 16,12 l 4,0 0,4 -4,0 z M 20,12 l 4,0 0,4 -4,0 z M 28,12 l 4,0 0,4 -4,0 z M 40,12 l 4,0 0,4 -4,0 z M 56,12 l 4,0 0,4 -4,0 z M 60,12 l 4,0 0,4 -4,0 z M 64,12 l 4,0 0,4 -4,0 z M 72,12 l 4,0 0,4 -4,0 z M 76,12 l 4,0 0,4 -4,0 z M 80,12 l 4,0 0,4 -4,0 z M 84,12 l 4,0 0,4 -4,0 z M 92,12 l 4,0 0,4 -4,0 z M 100,12 l 4,0 0,4 -4,0 z M 104,12 l 4,0 0,4 -4,0 z M 128,12 l 4,0 0,4 -4,0 z M 132,12 l 4,0 0,4 -4,0 z M 136,12 l 4,0 0,4 -4,0 z M 140,12 l 4,0 0,4 -4,0 z M 144,12 l 4,0 0,4 -4,0 z M 156,12 l 4,0 0,4 -4,0 z M 160,12 l 4,0 0,4 -4,0 z M 164,12 l 4,0 0,4 -4,0 z M 176,12 l 4,0 0,4 -4,0 z M 188,12 l 4,0 0,4 -4,0 z M 196,12 l 4,0 0,4 -4,0 z M 200,12 l 4,0 0,4 -4,0 z M 204,12 l 4,0 0,4 -4,0 z M 212,12 l 4,0 0,4 -4,0 z M 4,16 l 4,0 0,4 -4,0 z M 12,16 l 4,0 0,4 -4,0 z M 16,16 l 4,0 0,4 -4,0 z M 20,16 l 4,0 0,4 -4,0 z M 28,16 l 4,0 0,4 -4,0 z M 36,16 l 4,0 0,4 -4,0 z M 40,16 l 4,0 0,4 -4,0 z M 52,16 l 4,0 0,4 -4,0 z M 56,16 l 4,0 0,4 -4,0 z M 64,16 l 4,0 0,4 -4,0 z M 68,16 l 4,0 0,4 -4,0 z M 72,16 l 4,0 0,4 -4,0 z M 84,16 l 4,0 0,4 -4,0 z M 92,16 l 4,0 0,4 -4,0 z M 100,16 l 4,0 0,4 -4,0 z M 104,16 l 4,0 0,4 -4,0 z M 108,16 l 4,0 0,4 -4,0 z M 116,16 l 4,0 0,4 -4,0 z M 120,16 l 4,0 0,4 -4,0 z M 140,16 l 4,0 0,4 -4,0 z M 148,16 l 4,0 0,4 -4,0 z M 160,16 l 4,0 0,4 -4,0 z M 172,16 l 4,0 0,4 -4,0 z M 180,16 l 4,0 0,4 -4,0 z M 188,16 l 4,0 0,4 -4,0 z M 196,16 l 4,0 0,4 -4,0 z M 200,16 l 4,0 0,4 -4,0 z M 204,16 l 4,0 0,4 -4,0 z M 212,16 l 4,0 0,4 -4,0 z M 4,20 l 4,0 0,4 -4,0 z M 12,20 l 4,0 0,4 -4,0 z M 16,20 l 4,0 0,4 -4,0 z M 20,20 l 4,0 0,4 -4,0 z M 28,20 l 4,0 0,4 -4,0 z M 40,20 l 4,0 0,4 -4,0 z M 48,20 l 4,0 0,4 -4,0 z M 80,20 l 4,0 0,4 -4,0 z M 88,20 l 4,0 0,4 -4,0 z M 100,20 l 4,0 0,4 -4,0 z M 104,20 l 4,0 0,4 -4,0 z M 108,20 l 4,0 0,4 -4,0 z M 112,20 l 4,0 0,4 -4,0 z M 116,20 l 4,0 0,4 -4,0 z M 124,20 l 4,0 0,4 -4,0 z M 128,20 l 4,0 0,4 -4,0 z M 132,20 l 4,0 0,4 -4,0 z M 136,20 l 4,0 0,4 -4,0 z M 144,20 l 4,0 0,4 -4,0 z M 156,20 l 4,0 0,4 -4,0 z M 160,20 l 4,0 0,4 -4,0 z M 172,20 l 4,0 0,4 -4,0 z M 188,20 l 4,0 0,4 -4,0 z M 196,20 l 4,0 0,4 -4,0 z M 200,20 l 4,0 0,4 -4,0 z M 204,20 l 4,0 0,4 -4,0 z M 212,20 l 4,0 0,4 -4,0 z M 4,24 l 4,0 0,4 -4,0 z M 28,24 l 4,0 0,4 -4,0 z M 36,24 l 4,0 0,4 -4,0 z M 48,24 l 4,0 0,4 -4,0 z M 56,24 l 4,0 0,4 -4,0 z M 60,24 l 4,0 0,4 -4,0 z M 64,24 l 4,0 0,4 -4,0 z M 68,24 l 4,0 0,4 -4,0 z M 72,24 l 4,0 0,4 -4,0 z M 76,24 l 4,0 0,4 -4,0 z M 88,24 l 4,0 0,4 -4,0 z M 92,24 l 4,0 0,4 -4,0 z M 96,24 l 4,0 0,4 -4,0 z M 100,24 l 4,0 0,4 -4,0 z M 116,24 l 4,0 0,4 -4,0 z M 136,24 l 4,0 0,4 -4,0 z M 140,24 l 4,0 0,4 -4,0 z M 164,24 l 4,0 0,4 -4,0 z M 172,24 l 4,0 0,4 -4,0 z M 188,24 l 4,0 0,4 -4,0 z M 212,24 l 4,0 0,4 -4,0 z M 4,28 l 4,0 0,4 -4,0 z M 8,28 l 4,0 0,4 -4,0 z M 12,28 l 4,0 0,4 -4,0 z M 16,28 l 4,0 0,4 -4,0 z M 20,28 l 4,0 0,4 -4,0 z M 24,28 l 4,0 0,4 -4,0 z M 28,28 l 4,0 0,4 -4,0 z M 36,28 l 4,0 0,4 -4,0 z M 44,28 l 4,0 0,4 -4,0 z M 52,28 l 4,0 0,4 -4,0 z M 60,28 l 4,0 0,4 -4,0 z M 68,28 l 4,0 0,4 -4,0 z M 76,28 l 4,0 0,4 -4,0 z M 84,28 l 4,0 0,4 -4,0 z M 92,28 l 4,0 0,4 -4,0 z M 100,28 l 4,0 0,4 -4,0 z M 108,28 l 4,0 0,4 -4,0 z M 116,28 l 4,0 0,4 -4,0 z M 124,28 l 4,0 0,4 -4,0 z M 132,28 l 4,0 0,4 -4,0 z M 140,28 l 4,0 0,4 -4,0 z M 148,28 l 4,0 0,4 -4,0 z M 156,28 l 4,0 0,4 -4,0 z M 164,28 l 4,0 0,4 -4,0 z M 172,28 l 4,0 0,4 -4,0 z M 180,28 l 4,0 0,4 -4,0 z M 188,28 l 4,0 0,4 -4,0 z M 192,28 l 4,0 0,4 -4,0 z M 196,28 l 4,0 0,4 -4,0 z M 200,28 l 4,0 0,4 -4,0 z M 204,28 l 4,0 0,4 -4,0 z M 208,28 l 4,0 0,4 -4,0 z M 212,28 l 4,0 0,4 -4,0 z M 48,32 l 4,0 0,4 -4,0 z M 60,32 l 4,0 0,4 -4,0 z M 68,32 l 4,0 0,4 -4,0 z M 72,32 l 4,0 0,4 -4,0 z M 80,32 l 4,0 0,4 -4,0 z M 84,32 l 4,0 0,4 -4,0 z M 92,32 l 4,0 0,4 -4,0 z M 100,32 l 4,0 0,4 -4,0 z M 116,32 l 4,0 0,4 -4,0 z M 120,32 l 4,0 0,4 -4,0 z M 136,32 l 4,0 0,4 -4,0 z M 144,32 l 4,0 0,4 -4,0 z M 148,32 l 4,0 0,4 -4,0 z M 156,32 l 4,0 0,4 -4,0 z M 160,32 l 4,0 0,4 -4,0 z M 164,32 l 4,0 0,4 -4,0 z M 168,32 l 4,0 0,4 -4,0 z M 176,32 l 4,0 0,4 -4,0 z M 4,36 l 4,0 0,4 -4,0 z M 8,36 l 4,0 0,4 -4,0 z M 12,36 l 4,0 0,4 -4,0 z M 16,36 l 4,0 0,4 -4,0 z M 20,36 l 4,0 0,4 -4,0 z M 28,36 l 4,0 0,4 -4,0 z M 32,36 l 4,0 0,4 -4,0 z M 36,36 l 4,0 0,4 -4,0 z M 40,36 l 4,0 0,4 -4,0 z M 48,36 l 4,0 0,4 -4,0 z M 52,36 l 4,0 0,4 -4,0 z M 56,36 l 4,0 0,4 -4,0 z M 60,36 l 4,0 0,4 -4,0 z M 64,36 l 4,0 0,4 -4,0 z M 72,36 l 4,0 0,4 -4,0 z M 76,36 l 4,0 0,4 -4,0 z M 84,36 l 4,0 0,4 -4,0 z M 88,36 l 4,0 0,4 -4,0 z M 92,36 l 4,0 0,4 -4,0 z M 100,36 l 4,0 0,4 -4,0 z M 104,36 l 4,0 0,4 -4,0 z M 108,36 l 4,0 0,4 -4,0 z M 112,36 l 4,0 0,4 -4,0 z M 116,36 l 4,0 0,4 -4,0 z M 124,36 l 4,0 0,4 -4,0 z M 136,36 l 4,0 0,4 -4,0 z M 144,36 l 4,0 0,4 -4,0 z M 152,36 l 4,0 0,4 -4,0 z M 184,36 l 4,0 0,4 -4,0 z M 192,36 l 4,0 0,4 -4,0 z M 200,36 l 4,0 0,4 -4,0 z M 208,36 l 4,0 0,4 -4,0 z M 8,40 l 4,0 0,4 -4,0 z M 12,40 l 4,0 0,4 -4,0 z M 20,40 l 4,0 0,4 -4,0 z M 36,40 l 4,0 0,4 -4,0 z M 44,40 l 4,0 0,4 -4,0 z M 52,40 l 4,0 0,4 -4,0 z M 68,40 l 4,0 0,4 -4,0 z M 72,40 l 4,0 0,4 -4,0 z M 84,40 l 4,0 0,4 -4,0 z M 104,40 l 4,0 0,4 -4,0 z M 124,40 l 4,0 0,4 -4,0 z M 148,40 l 4,0 0,4 -4,0 z M 152,40 l 4,0 0,4 -4,0 z M 160,40 l 4,0 0,4 -4,0 z M 164,40 l 4,0 0,4 -4,0 z M 172,40 l 4,0 0,4 -4,0 z M 176,40 l 4,0 0,4 -4,0 z M 188,40 l 4,0 0,4 -4,0 z M 200,40 l 4,0 0,4 -4,0 z M 204,40 l 4,0 0,4 -4,0 z M 208,40 l 4,0 0,4 -4,0 z M 212,40 l 4,0 0,4 -4,0 z M 4,44 l 4,0 0,4 -4,0 z M 12,44 l 4,0 0,4 -4,0 z M 16,44 l 4,0 0,4 -4,0 z M 24,44 l 4,0 0,4 -4,0 z M 28,44 l 4,0 0,4 -4,0 z M 36,44 l 4,0 0,4 -4,0 z M 40,44 l 4,0 0,4 -4,0 z M 48,44 l 4,0 0,4 -4,0 z M 56,44 l 4,0 0,4 -4,0 z M 64,44 l 4,0 0,4 -4,0 z M 68,44 l 4,0 0,4 -4,0 z M 72,44 l 4,0 0,4 -4,0 z M 80,44 l 4,0 0,4 -4,0 z M 92,44 l 4,0 0,4 -4,0 z M 100,44 l 4,0 0,4 -4,0 z M 104,44 l 4,0 0,4 -4,0 z M 116,44 l 4,0 0,4 -4,0 z M 124,44 l 4,0 0,4 -4,0 z M 128,44 l 4,0 0,4 -4,0 z M 132,44 l 4,0 0,4 -4,0 z M 140,44 l 4,0 0,4 -4,0 z M 152,44 l 4,0 0,4 -4,0 z M 156,44 l 4,0 0,4 -4,0 z M 164,44 l 4,0 0,4 -4,0 z M 168,44 l 4,0 0,4 -4,0 z M 180,44 l 4,0 0,4 -4,0 z M 192,44 l 4,0 0,4 -4,0 z M 196,44 l 4,0 0,4 -4,0 z M 200,44 l 4,0 0,4 -4,0 z M 212,44 l 4,0 0,4 -4,0 z M 4,48 l 4,0 0,4 -4,0 z M 8,48 l 4,0 0,4 -4,0 z M 12,48 l 4,0 0,4 -4,0 z M 24,48 l 4,0 0,4 -4,0 z M 32,48 l 4,0 0,4 -4,0 z M 40,48 l 4,0 0,4 -4,0 z M 44,48 l 4,0 0,4 -4,0 z M 48,48 l 4,0 0,4 -4,0 z M 52,48 l 4,0 0,4 -4,0 z M 56,48 l 4,0 0,4 -4,0 z M 68,48 l 4,0 0,4 -4,0 z M 72,48 l 4,0 0,4 -4,0 z M 76,48 l 4,0 0,4 -4,0 z M 80,48 l 4,0 0,4 -4,0 z M 128,48 l 4,0 0,4 -4,0 z M 136,48 l 4,0 0,4 -4,0 z M 144,48 l 4,0 0,4 -4,0 z M 152,48 l 4,0 0,4 -4,0 z M 168,48 l 4,0 0,4 -4,0 z M 176,48 l 4,0 0,4 -4,0 z M 184,48 l 4,0 0,4 -4,0 z M 188,48 l 4,0 0,4 -4,0 z M 200,48 l 4,0 0,4 -4,0 z M 204,48 l 4,0 0,4 -4,0 z M 4,52 l 4,0 0,4 -4,0 z M 12,52 l 4,0 0,4 -4,0 z M 16,52 l 4,0 0,4 -4,0 z M 20,52 l 4,0 0,4 -4,0 z M 28,52 l 4,0 0,4 -4,0 z M 56,52 l 4,0 0,4 -4,0 z M 60,52 l 4,0 0,4 -4,0 z M 64,52 l 4,0 0,4 -4,0 z M 72,52 l 4,0 0,4 -4,0 z M 88,52 l 4,0 0,4 -4,0 z M 96,52 l 4,0 0,4 -4,0 z M 104,52 l 4,0 0,4 -4,0 z M 108,52 l 4,0 0,4 -4,0 z M 112,52 l 4,0 0,4 -4,0 z M 116,52 l 4,0 0,4 -4,0 z M 120,52 l 4,0 0,4 -4,0 z M 132,52 l 4,0 0,4 -4,0 z M 136,52 l 4,0 0,4 -4,0 z M 148,52 l 4,0 0,4 -4,0 z M 156,52 l 4,0 0,4 -4,0 z M 160,52 l 4,0 0,4 -4,0 z M 164,52 l 4,0 0,4 -4,0 z M 172,52 l 4,0 0,4 -4,0 z M 180,52 l 4,0 0,4 -4,0 z M 184,52 l 4,0 0,4 -4,0 z M 188,52 l 4,0 0,4 -4,0 z M 192,52 l 4,0 0,4 -4,0 z M 196,52 l 4,0 0,4 -4,0 z M 204,52 l 4,0 0,4 -4,0 z M 212,52 l 4,0 0,4 -4,0 z M 16,56 l 4,0 0,4 -4,0 z M 32,56 l 4,0 0,4 -4,0 z M 36,56 l 4,0 0,4 -4,0 z M 44,56 l 4,0 0,4 -4,0 z M 52,56 l 4,0 0,4 -4,0 z M 60,56 l 4,0 0,4 -4,0 z M 64,56 l 4,0 0,4 -4,0 z M 80,56 l 4,0 0,4 -4,0 z M 84,56 l 4,0 0,4 -4,0 z M 88,56 l 4,0 0,4 -4,0 z M 92,56 l 4,0 0,4 -4,0 z M 112,56 l 4,0 0,4 -4,0 z M 120,56 l 4,0 0,4 -4,0 z M 124,56 l 4,0 0,4 -4,0 z M 128,56 l 4,0 0,4 -4,0 z M 132,56 l 4,0 0,4 -4,0 z M 144,56 l 4,0 0,4 -4,0 z M 152,56 l 4,0 0,4 -4,0 z M 164,56 l 4,0 0,4 -4,0 z M 176,56 l 4,0 0,4 -4,0 z M 180,56 l 4,0 0,4 -4,0 z M 188,56 l 4,0 0,4 -4,0 z M 192,56 l 4,0 0,4 -4,0 z M 204,56 l 4,0 0,4 -4,0 z M 208,56 l 4,0 0,4 -4,0 z M 212,56 l 4,0 0,4 -4,0 z M 8,60 l 4,0 0,4 -4,0 z M 12,60 l 4,0 0,4 -4,0 z M 16,60 l 4,0 0,4 -4,0 z M 20,60 l 4,0 0,4 -4,0 z M 28,60 l 4,0 0,4 -4,0 z M 36,60 l 4,0 0,4 -4,0 z M 44,60 l 4,0 0,4 -4,0 z M 52,60 l 4,0 0,4 -4,0 z M 64,60 l 4,0 0,4 -4,0 z M 68,60 l 4,0 0,4 -4,0 z M 72,60 l 4,0 0,4 -4,0 z M 76,60 l 4,0 0,4 -4,0 z M 80,60 l 4,0 0,4 -4,0 z M 88,60 l 4,0 0,4 -4,0 z M 96,60 l 4,0 0,4 -4,0 z M 100,60 l 4,0 0,4 -4,0 z M 104,60 l 4,0 0,4 -4,0 z M 108,60 l 4,0 0,4 -4,0 z M 120,60 l 4,0 0,4 -4,0 z M 132,60 l 4,0 0,4 -4,0 z M 136,60 l 4,0 0,4 -4,0 z M 148,60 l 4,0 0,4 -4,0 z M 156,60 l 4,0 0,4 -4,0 z M 160,60 l 4,0 0,4 -4,0 z M 172,60 l 4,0 0,4 -4,0 z M 176,60 l 4,0 0,4 -4,0 z M 184,60 l 4,0 0,4 -4,0 z M 188,60 l 4,0 0,4 -4,0 z M 192,60 l 4,0 0,4 -4,0 z M 196,60 l 4,0 0,4 -4,0 z M 200,60 l 4,0 0,4 -4,0 z M 204,60 l 4,0 0,4 -4,0 z M 4,64 l 4,0 0,4 -4,0 z M 16,64 l 4,0 0,4 -4,0 z M 20,64 l 4,0 0,4 -4,0 z M 44,64 l 4,0 0,4 -4,0 z M 56,64 l 4,0 0,4 -4,0 z M 68,64 l 4,0 0,4 -4,0 z M 76,64 l 4,0 0,4 -4,0 z M 80,64 l 4,0 0,4 -4,0 z M 92,64 l 4,0 0,4 -4,0 z M 96,64 l 4,0 0,4 -4,0 z M 116,64 l 4,0 0,4 -4,0 z M 128,64 l 4,0 0,4 -4,0 z M 132,64 l 4,0 0,4 -4,0 z M 136,64 l 4,0 0,4 -4,0 z M 144,64 l 4,0 0,4 -4,0 z M 160,64 l 4,0 0,4 -4,0 z M 176,64 l 4,0 0,4 -4,0 z M 180,64 l 4,0 0,4 -4,0 z M 184,64 l 4,0 0,4 -4,0 z M 188,64 l 4,0 0,4 -4,0 z M 200,64 l 4,0 0,4 -4,0 z M 204,64 l 4,0 0,4 -4,0 z M 208,64 l 4,0 0,4 -4,0 z M 4,68 l 4,0 0,4 -4,0 z M 16,68 l 4,0 0,4 -4,0 z M 28,68 l 4,0 0,4 -4,0 z M 44,68 l 4,0 0,4 -4,0 z M 48,68 l 4,0 0,4 -4,0 z M 52,68 l 4,0 0,4 -4,0 z M 72,68 l 4,0 0,4 -4,0 z M 80,68 l 4,0 0,4 -4,0 z M 84,68 l 4,0 0,4 -4,0 z M 88,68 l 4,0 0,4 -4,0 z M 96,68 l 4,0 0,4 -4,0 z M 100,68 l 4,0 0,4 -4,0 z M 116,68 l 4,0 0,4 -4,0 z M 128,68 l 4,0 0,4 -4,0 z M 132,68 l 4,0 0,4 -4,0 z M 136,68 l 4,0 0,4 -4,0 z M 140,68 l 4,0 0,4 -4,0 z M 144,68 l 4,0 0,4 -4,0 z M 148,68 l 4,0 0,4 -4,0 z M 156,68 l 4,0 0,4 -4,0 z M 188,68 l 4,0 0,4 -4,0 z M 192,68 l 4,0 0,4 -4,0 z M 196,68 l 4,0 0,4 -4,0 z M 200,68 l 4,0 0,4 -4,0 z M 204,68 l 4,0 0,4 -4,0 z M 212,68 l 4,0 0,4 -4,0 z M 8,72 l 4,0 0,4 -4,0 z M 20,72 l 4,0 0,4 -4,0 z M 24,72 l 4,0 0,4 -4,0 z M 36,72 l 4,0 0,4 -4,0 z M 40,72 l 4,0 0,4 -4,0 z M 48,72 l 4,0 0,4 -4,0 z M 56,72 l 4,0 0,4 -4,0 z M 64,72 l 4,0 0,4 -4,0 z M 72,72 l 4,0 0,4 -4,0 z M 76,72 l 4,0 0,4 -4,0 z M 80,72 l 4,0 0,4 -4,0 z M 88,72 l 4,0 0,4 -4,0 z M 108,72 l 4,0 0,4 -4,0 z M 116,72 l 4,0 0,4 -4,0 z M 120,72 l 4,0 0,4 -4,0 z M 124,72 l 4,0 0,4 -4,0 z M 140,72 l 4,0 0,4 -4,0 z M 152,72 l 4,0 0,4 -4,0 z M 164,72 l 4,0 0,4 -4,0 z M 168,72 l 4,0 0,4 -4,0 z M 172,72 l 4,0 0,4 -4,0 z M 176,72 l 4,0 0,4 -4,0 z M 196,72 l 4,0 0,4 -4,0 z M 200,72 l 4,0 0,4 -4,0 z M 204,72 l 4,0 0,4 -4,0 z M 208,72 l 4,0 0,4 -4,0 z M 16,76 l 4,0 0,4 -4,0 z M 20,76 l 4,0 0,4 -4,0 z M 28,76 l 4,0 0,4 -4,0 z M 32,76 l 4,0 0,4 -4,0 z M 36,76 l 4,0 0,4 -4,0 z M 48,76 l 4,0 0,4 -4,0 z M 52,76 l 4,0 0,4 -4,0 z M 56,76 l 4,0 0,4 -4,0 z M 72,76 l 4,0 0,4 -4,0 z M 84,76 l 4,0 0,4 -4,0 z M 92,76 l 4,0 0,4 -4,0 z M 96,76 l 4,0 0,4 -4,0 z M 104,76 l 4,0 0,4 -4,0 z M 108,76 l 4,0 0,4 -4,0 z M 112,76 l 4,0 0,4 -4,0 z M 124,76 l 4,0 0,4 -4,0 z M 128,76 l 4,0 0,4 -4,0 z M 136,76 l 4,0 0,4 -4,0 z M 140,76 l 4,0 0,4 -4,0 z M 156,76 l 4,0 0,4 -4,0 z M 160,76 l 4,0 0,4 -4,0 z M 164,76 l 4,0 0,4 -4,0 z M 172,76 l 4,0 0,4 -4,0 z M 180,76 l 4,0 0,4 -4,0 z M 184,76 l 4,0 0,4 -4,0 z M 196,76 l 4,0 0,4 -4,0 z M 200,76 l 4,0 0,4 -4,0 z M 208,76 l 4,0 0,4 -4,0 z M 4,80 l 4,0 0,4 -4,0 z M 12,80 l 4,0 0,4 -4,0 z M 16,80 l 4,0 0,4 -4,0 z M 32,80 l 4,0 0,4 -4,0 z M 48,80 l 4,0 0,4 -4,0 z M 52,80 l 4,0 0,4 -4,0 z M 56,80 l 4,0 0,4 -4,0 z M 64,80 l 4,0 0,4 -4,0 z M 84,80 l 4,0 0,4 -4,0 z M 96,80 l 4,0 0,4 -4,0 z M 100,80 l 4,0 0,4 -4,0 z M 112,80 l 4,0 0,4 -4,0 z M 116,80 l 4,0 0,4 -4,0 z M 124,80 l 4,0 0,4 -4,0 z M 136,80 l 4,0 0,4 -4,0 z M 144,80 l 4,0 0,4 -4,0 z M 152,80 l 4,0 0,4 -4,0 z M 160,80 l 4,0 0,4 -4,0 z M 168,80 l 4,0 0,4 -4,0 z M 180,80 l 4,0 0,4 -4,0 z M 188,80 l 4,0 0,4 -4,0 z M 200,80 l 4,0 0,4 -4,0 z M 204,80 l 4,0 0,4 -4,0 z M 20,84 l 4,0 0,4 -4,0 z M 24,84 l 4,0 0,4 -4,0 z M 28,84 l 4,0 0,4 -4,0 z M 44,84 l 4,0 0,4 -4,0 z M 48,84 l 4,0 0,4 -4,0 z M 56,84 l 4,0 0,4 -4,0 z M 60,84 l 4,0 0,4 -4,0 z M 64,84 l 4,0 0,4 -4,0 z M 76,84 l 4,0 0,4 -4,0 z M 84,84 l 4,0 0,4 -4,0 z M 92,84 l 4,0 0,4 -4,0 z M 96,84 l 4,0 0,4 -4,0 z M 108,84 l 4,0 0,4 -4,0 z M 112,84 l 4,0 0,4 -4,0 z M 120,84 l 4,0 0,4 -4,0 z M 144,84 l 4,0 0,4 -4,0 z M 148,84 l 4,0 0,4 -4,0 z M 160,84 l 4,0 0,4 -4,0 z M 172,84 l 4,0 0,4 -4,0 z M 180,84 l 4,0 0,4 -4,0 z M 184,84 l 4,0 0,4 -4,0 z M 192,84 l 4,0 0,4 -4,0 z M 196,84 l 4,0 0,4 -4,0 z M 204,84 l 4,0 0,4 -4,0 z M 4,88 l 4,0 0,4 -4,0 z M 8,88 l 4,0 0,4 -4,0 z M 20,88 l 4,0 0,4 -4,0 z M 36,88 l 4,0 0,4 -4,0 z M 48,88 l 4,0 0,4 -4,0 z M 60,88 l 4,0 0,4 -4,0 z M 64,88 l 4,0 0,4 -4,0 z M 68,88 l 4,0 0,4 -4,0 z M 76,88 l 4,0 0,4 -4,0 z M 88,88 l 4,0 0,4 -4,0 z M 108,88 l 4,0 0,4 -4,0 z M 112,88 l 4,0 0,4 -4,0 z M 132,88 l 4,0 0,4 -4,0 z M 140,88 l 4,0 0,4 -4,0 z M 144,88 l 4,0 0,4 -4,0 z M 164,88 l 4,0 0,4 -4,0 z M 184,88 l 4,0 0,4 -4,0 z M 188,88 l 4,0 0,4 -4,0 z M 192,88 l 4,0 0,4 -4,0 z M 204,88 l 4,0 0,4 -4,0 z M 208,88 l 4,0 0,4 -4,0 z M 4,92 l 4,0 0,4 -4,0 z M 8,92 l 4,0 0,4 -4,0 z M 12,92 l 4,0 0,4 -4,0 z M 16,92 l 4,0 0,4 -4,0 z M 28,92 l 4,0 0,4 -4,0 z M 36,92 l 4,0 0,4 -4,0 z M 40,92 l 4,0 0,4 -4,0 z M 44,92 l 4,0 0,4 -4,0 z M 52,92 l 4,0 0,4 -4,0 z M 56,92 l 4,0 0,4 -4,0 z M 60,92 l 4,0 0,4 -4,0 z M 64,92 l 4,0 0,4 -4,0 z M 68,92 l 4,0 0,4 -4,0 z M 72,92 l 4,0 0,4 -4,0 z M 76,92 l 4,0 0,4 -4,0 z M 88,92 l 4,0 0,4 -4,0 z M 92,92 l 4,0 0,4 -4,0 z M 100,92 l 4,0 0,4 -4,0 z M 104,92 l 4,0 0,4 -4,0 z M 108,92 l 4,0 0,4 -4,0 z M 132,92 l 4,0 0,4 -4,0 z M 140,92 l 4,0 0,4 -4,0 z M 144,92 l 4,0 0,4 -4,0 z M 160,92 l 4,0 0,4 -4,0 z M 164,92 l 4,0 0,4 -4,0 z M 184,92 l 4,0 0,4 -4,0 z M 188,92 l 4,0 0,4 -4,0 z M 192,92 l 4,0 0,4 -4,0 z M 196,92 l 4,0 0,4 -4,0 z M 200,92 l 4,0 0,4 -4,0 z M 212,92 l 4,0 0,4 -4,0 z M 4,96 l 4,0 0,4 -4,0 z M 16,96 l 4,0 0,4 -4,0 z M 24,96 l 4,0 0,4 -4,0 z M 44,96 l 4,0 0,4 -4,0 z M 60,96 l 4,0 0,4 -4,0 z M 68,96 l 4,0 0,4 -4,0 z M 76,96 l 4,0 0,4 -4,0 z M 80,96 l 4,0 0,4 -4,0 z M 84,96 l 4,0 0,4 -4,0 z M 92,96 l 4,0 0,4 -4,0 z M 96,96 l 4,0 0,4 -4,0 z M 100,96 l 4,0 0,4 -4,0 z M 104,96 l 4,0 0,4 -4,0 z M 108,96 l 4,0 0,4 -4,0 z M 112,96 l 4,0 0,4 -4,0 z M 120,96 l 4,0 0,4 -4,0 z M 124,96 l 4,0 0,4 -4,0 z M 164,96 l 4,0 0,4 -4,0 z M 168,96 l 4,0 0,4 -4,0 z M 176,96 l 4,0 0,4 -4,0 z M 180,96 l 4,0 0,4 -4,0 z M 184,96 l 4,0 0,4 -4,0 z M 200,96 l 4,0 0,4 -4,0 z M 204,96 l 4,0 0,4 -4,0 z M 8,100 l 4,0 0,4 -4,0 z M 12,100 l 4,0 0,4 -4,0 z M 16,100 l 4,0 0,4 -4,0 z M 20,100 l 4,0 0,4 -4,0 z M 24,100 l 4,0 0,4 -4,0 z M 28,100 l 4,0 0,4 -4,0 z M 32,100 l 4,0 0,4 -4,0 z M 36,100 l 4,0 0,4 -4,0 z M 40,100 l 4,0 0,4 -4,0 z M 44,100 l 4,0 0,4 -4,0 z M 56,100 l 4,0 0,4 -4,0 z M 60,100 l 4,0 0,4 -4,0 z M 64,100 l 4,0 0,4 -4,0 z M 76,100 l 4,0 0,4 -4,0 z M 84,100 l 4,0 0,4 -4,0 z M 88,100 l 4,0 0,4 -4,0 z M 92,100 l 4,0 0,4 -4,0 z M 96,100 l 4,0 0,4 -4,0 z M 100,100 l 4,0 0,4 -4,0 z M 104,100 l 4,0 0,4 -4,0 z M 108,100 l 4,0 0,4 -4,0 z M 112,100 l 4,0 0,4 -4,0 z M 116,100 l 4,0 0,4 -4,0 z M 120,100 l 4,0 0,4 -4,0 z M 124,100 l 4,0 0,4 -4,0 z M 128,100 l 4,0 0,4 -4,0 z M 148,100 l 4,0 0,4 -4,0 z M 152,100 l 4,0 0,4 -4,0 z M 160,100 l 4,0 0,4 -4,0 z M 180,100 l 4,0 0,4 -4,0 z M 184,100 l 4,0 0,4 -4,0 z M 188,100 l 4,0 0,4 -4,0 z M 192,100 l 4,0 0,4 -4,0 z M 196,100 l 4,0 0,4 -4,0 z M 200,100 l 4,0 0,4 -4,0 z M 8,104 l 4,0 0,4 -4,0 z M 20,104 l 4,0 0,4 -4,0 z M 36,104 l 4,0 0,4 -4,0 z M 48,104 l 4,0 0,4 -4,0 z M 68,104 l 4,0 0,4 -4,0 z M 76,104 l 4,0 0,4 -4,0 z M 80,104 l 4,0 0,4 -4,0 z M 88,104 l 4,0 0,4 -4,0 z M 92,104 l 4,0 0,4 -4,0 z M 100,104 l 4,0 0,4 -4,0 z M 116,104 l 4,0 0,4 -4,0 z M 120,104 l 4,0 0,4 -4,0 z M 124,104 l 4,0 0,4 -4,0 z M 128,104 l 4,0 0,4 -4,0 z M 132,104 l 4,0 0,4 -4,0 z M 140,104 l 4,0 0,4 -4,0 z M 160,104 l 4,0 0,4 -4,0 z M 164,104 l 4,0 0,4 -4,0 z M 168,104 l 4,0 0,4 -4,0 z M 172,104 l 4,0 0,4 -4,0 z M 180,104 l 4,0 0,4 -4,0 z M 196,104 l 4,0 0,4 -4,0 z M 200,104 l 4,0 0,4 -4,0 z M 204,104 l 4,0 0,4 -4,0 z M 208,104 l 4,0 0,4 -4,0 z M 8,108 l 4,0 0,4 -4,0 z M 12,108 l 4,0 0,4 -4,0 z M 20,108 l 4,0 0,4 -4,0 z M 28,108 l 4,0 0,4 -4,0 z M 36,108 l 4,0 0,4 -4,0 z M 48,108 l 4,0 0,4 -4,0 z M 52,108 l 4,0 0,4 -4,0 z M 56,108 l 4,0 0,4 -4,0 z M 60,108 l 4,0 0,4 -4,0 z M 64,108 l 4,0 0,4 -4,0 z M 68,108 l 4,0 0,4 -4,0 z M 76,108 l 4,0 0,4 -4,0 z M 92,108 l 4,0 0,4 -4,0 z M 100,108 l 4,0 0,4 -4,0 z M 108,108 l 4,0 0,4 -4,0 z M 116,108 l 4,0 0,4 -4,0 z M 124,108 l 4,0 0,4 -4,0 z M 132,108 l 4,0 0,4 -4,0 z M 160,108 l 4,0 0,4 -4,0 z M 164,108 l 4,0 0,4 -4,0 z M 180,108 l 4,0 0,4 -4,0 z M 188,108 l 4,0 0,4 -4,0 z M 196,108 l 4,0 0,4 -4,0 z M 204,108 l 4,0 0,4 -4,0 z M 212,108 l 4,0 0,4 -4,0 z M 4,112 l 4,0 0,4 -4,0 z M 8,112 l 4,0 0,4 -4,0 z M 16,112 l 4,0 0,4 -4,0 z M 20,112 l 4,0 0,4 -4,0 z M 36,112 l 4,0 0,4 -4,0 z M 40,112 l 4,0 0,4 -4,0 z M 44,112 l 4,0 0,4 -4,0 z M 48,112 l 4,0 0,4 -4,0 z M 56,112 l 4,0 0,4 -4,0 z M 68,112 l 4,0 0,4 -4,0 z M 72,112 l 4,0 0,4 -4,0 z M 76,112 l 4,0 0,4 -4,0 z M 80,112 l 4,0 0,4 -4,0 z M 88,112 l 4,0 0,4 -4,0 z M 96,112 l 4,0 0,4 -4,0 z M 100,112 l 4,0 0,4 -4,0 z M 116,112 l 4,0 0,4 -4,0 z M 124,112 l 4,0 0,4 -4,0 z M 128,112 l 4,0 0,4 -4,0 z M 136,112 l 4,0 0,4 -4,0 z M 156,112 l 4,0 0,4 -4,0 z M 160,112 l 4,0 0,4 -4,0 z M 168,112 l 4,0 0,4 -4,0 z M 172,112 l 4,0 0,4 -4,0 z M 180,112 l 4,0 0,4 -4,0 z M 196,112 l 4,0 0,4 -4,0 z M 4,116 l 4,0 0,4 -4,0 z M 12,116 l 4,0 0,4 -4,0 z M 20,116 l 4,0 0,4 -4,0 z M 24,116 l 4,0 0,4 -4,0 z M 28,116 l 4,0 0,4 -4,0 z M 32,116 l 4,0 0,4 -4,0 z M 36,116 l 4,0 0,4 -4,0 z M 40,116 l 4,0 0,4 -4,0 z M 44,116 l 4,0 0,4 -4,0 z M 56,116 l 4,0 0,4 -4,0 z M 60,116 l 4,0 0,4 -4,0 z M 64,116 l 4,0 0,4 -4,0 z M 72,116 l 4,0 0,4 -4,0 z M 76,116 l 4,0 0,4 -4,0 z M 92,116 l 4,0 0,4 -4,0 z M 96,116 l 4,0 0,4 -4,0 z M 100,116 l 4,0 0,4 -4,0 z M 104,116 l 4,0 0,4 -4,0 z M 108,116 l 4,0 0,4 -4,0 z M 112,116 l 4,0 0,4 -4,0 z M 116,116 l 4,0 0,4 -4,0 z M 120,116 l 4,0 0,4 -4,0 z M 128,116 l 4,0 0,4 -4,0 z M 132,116 l 4,0 0,4 -4,0 z M 136,116 l 4,0 0,4 -4,0 z M 144,116 l 4,0 0,4 -4,0 z M 148,116 l 4,0 0,4 -4,0 z M 156,116 l 4,0 0,4 -4,0 z M 164,116 l 4,0 0,4 -4,0 z M 172,116 l 4,0 0,4 -4,0 z M 176,116 l 4,0 0,4 -4,0 z M 180,116 l 4,0 0,4 -4,0 z M 184,116 l 4,0 0,4 -4,0 z M 188,116 l 4,0 0,4 -4,0 z M 192,116 l 4,0 0,4 -4,0 z M 196,116 l 4,0 0,4 -4,0 z M 4,120 l 4,0 0,4 -4,0 z M 12,120 l 4,0 0,4 -4,0 z M 20,120 l 4,0 0,4 -4,0 z M 32,120 l 4,0 0,4 -4,0 z M 36,120 l 4,0 0,4 -4,0 z M 40,120 l 4,0 0,4 -4,0 z M 44,120 l 4,0 0,4 -4,0 z M 64,120 l 4,0 0,4 -4,0 z M 68,120 l 4,0 0,4 -4,0 z M 76,120 l 4,0 0,4 -4,0 z M 80,120 l 4,0 0,4 -4,0 z M 88,120 l 4,0 0,4 -4,0 z M 96,120 l 4,0 0,4 -4,0 z M 112,120 l 4,0 0,4 -4,0 z M 116,120 l 4,0 0,4 -4,0 z M 120,120 l 4,0 0,4 -4,0 z M 124,120 l 4,0 0,4 -4,0 z M 128,120 l 4,0 0,4 -4,0 z M 136,120 l 4,0 0,4 -4,0 z M 160,120 l 4,0 0,4 -4,0 z M 172,120 l 4,0 0,4 -4,0 z M 176,120 l 4,0 0,4 -4,0 z M 180,120 l 4,0 0,4 -4,0 z M 184,120 l 4,0 0,4 -4,0 z M 188,120 l 4,0 0,4 -4,0 z M 192,120 l 4,0 0,4 -4,0 z M 196,120 l 4,0 0,4 -4,0 z M 200,120 l 4,0 0,4 -4,0 z M 204,120 l 4,0 0,4 -4,0 z M 208,120 l 4,0 0,4 -4,0 z M 212,120 l 4,0 0,4 -4,0 z M 16,124 l 4,0 0,4 -4,0 z M 20,124 l 4,0 0,4 -4,0 z M 24,124 l 4,0 0,4 -4,0 z M 28,124 l 4,0 0,4 -4,0 z M 32,124 l 4,0 0,4 -4,0 z M 48,124 l 4,0 0,4 -4,0 z M 64,124 l 4,0 0,4 -4,0 z M 68,124 l 4,0 0,4 -4,0 z M 76,124 l 4,0 0,4 -4,0 z M 84,124 l 4,0 0,4 -4,0 z M 88,124 l 4,0 0,4 -4,0 z M 124,124 l 4,0 0,4 -4,0 z M 132,124 l 4,0 0,4 -4,0 z M 136,124 l 4,0 0,4 -4,0 z M 140,124 l 4,0 0,4 -4,0 z M 148,124 l 4,0 0,4 -4,0 z M 152,124 l 4,0 0,4 -4,0 z M 156,124 l 4,0 0,4 -4,0 z M 160,124 l 4,0 0,4 -4,0 z M 164,124 l 4,0 0,4 -4,0 z M 172,124 l 4,0 0,4 -4,0 z M 184,124 l 4,0 0,4 -4,0 z M 188,124 l 4,0 0,4 -4,0 z M 192,124 l 4,0 0,4 -4,0 z M 200,124 l 4,0 0,4 -4,0 z M 208,124 l 4,0 0,4 -4,0 z M 4,128 l 4,0 0,4 -4,0 z M 16,128 l 4,0 0,4 -4,0 z M 24,128 l 4,0 0,4 -4,0 z M 32,128 l 4,0 0,4 -4,0 z M 36,128 l 4,0 0,4 -4,0 z M 56,128 l 4,0 0,4 -4,0 z M 68,128 l 4,0 0,4 -4,0 z M 72,128 l 4,0 0,4 -4,0 z M 76,128 l 4,0 0,4 -4,0 z M 80,128 l 4,0 0,4 -4,0 z M 84,128 l 4,0 0,4 -4,0 z M 92,128 l 4,0 0,4 -4,0 z M 96,128 l 4,0 0,4 -4,0 z M 100,128 l 4,0 0,4 -4,0 z M 112,128 l 4,0 0,4 -4,0 z M 116,128 l 4,0 0,4 -4,0 z M 120,128 l 4,0 0,4 -4,0 z M 140,128 l 4,0 0,4 -4,0 z M 144,128 l 4,0 0,4 -4,0 z M 156,128 l 4,0 0,4 -4,0 z M 164,128 l 4,0 0,4 -4,0 z M 172,128 l 4,0 0,4 -4,0 z M 184,128 l 4,0 0,4 -4,0 z M 192,128 l 4,0 0,4 -4,0 z M 196,128 l 4,0 0,4 -4,0 z M 208,128 l 4,0 0,4 -4,0 z M 8,132 l 4,0 0,4 -4,0 z M 12,132 l 4,0 0,4 -4,0 z M 16,132 l 4,0 0,4 -4,0 z M 20,132 l 4,0 0,4 -4,0 z M 24,132 l 4,0 0,4 -4,0 z M 28,132 l 4,0 0,4 -4,0 z M 44,132 l 4,0 0,4 -4,0 z M 52,132 l 4,0 0,4 -4,0 z M 76,132 l 4,0 0,4 -4,0 z M 80,132 l 4,0 0,4 -4,0 z M 96,132 l 4,0 0,4 -4,0 z M 104,132 l 4,0 0,4 -4,0 z M 112,132 l 4,0 0,4 -4,0 z M 116,132 l 4,0 0,4 -4,0 z M 120,132 l 4,0 0,4 -4,0 z M 124,132 l 4,0 0,4 -4,0 z M 128,132 l 4,0 0,4 -4,0 z M 132,132 l 4,0 0,4 -4,0 z M 136,132 l 4,0 0,4 -4,0 z M 156,132 l 4,0 0,4 -4,0 z M 160,132 l 4,0 0,4 -4,0 z M 168,132 l 4,0 0,4 -4,0 z M 172,132 l 4,0 0,4 -4,0 z M 176,132 l 4,0 0,4 -4,0 z M 180,132 l 4,0 0,4 -4,0 z M 188,132 l 4,0 0,4 -4,0 z M 196,132 l 4,0 0,4 -4,0 z M 200,132 l 4,0 0,4 -4,0 z M 204,132 l 4,0 0,4 -4,0 z M 212,132 l 4,0 0,4 -4,0 z M 4,136 l 4,0 0,4 -4,0 z M 8,136 l 4,0 0,4 -4,0 z M 20,136 l 4,0 0,4 -4,0 z M 32,136 l 4,0 0,4 -4,0 z M 40,136 l 4,0 0,4 -4,0 z M 52,136 l 4,0 0,4 -4,0 z M 56,136 l 4,0 0,4 -4,0 z M 64,136 l 4,0 0,4 -4,0 z M 76,136 l 4,0 0,4 -4,0 z M 80,136 l 4,0 0,4 -4,0 z M 88,136 l 4,0 0,4 -4,0 z M 112,136 l 4,0 0,4 -4,0 z M 116,136 l 4,0 0,4 -4,0 z M 120,136 l 4,0 0,4 -4,0 z M 124,136 l 4,0 0,4 -4,0 z M 128,136 l 4,0 0,4 -4,0 z M 132,136 l 4,0 0,4 -4,0 z M 136,136 l 4,0 0,4 -4,0 z M 140,136 l 4,0 0,4 -4,0 z M 148,136 l 4,0 0,4 -4,0 z M 152,136 l 4,0 0,4 -4,0 z M 160,136 l 4,0 0,4 -4,0 z M 164,136 l 4,0 0,4 -4,0 z M 168,136 l 4,0 0,4 -4,0 z M 172,136 l 4,0 0,4 -4,0 z M 180,136 l 4,0 0,4 -4,0 z M 192,136 l 4,0 0,4 -4,0 z M 196,136 l 4,0 0,4 -4,0 z M 4,140 l 4,0 0,4 -4,0 z M 8,140 l 4,0 0,4 -4,0 z M 20,140 l 4,0 0,4 -4,0 z M 24,140 l 4,0 0,4 -4,0 z M 28,140 l 4,0 0,4 -4,0 z M 40,140 l 4,0 0,4 -4,0 z M 56,140 l 4,0 0,4 -4,0 z M 60,140 l 4,0 0,4 -4,0 z M 84,140 l 4,0 0,4 -4,0 z M 92,140 l 4,0 0,4 -4,0 z M 108,140 l 4,0 0,4 -4,0 z M 112,140 l 4,0 0,4 -4,0 z M 124,140 l 4,0 0,4 -4,0 z M 132,140 l 4,0 0,4 -4,0 z M 136,140 l 4,0 0,4 -4,0 z M 140,140 l 4,0 0,4 -4,0 z M 148,140 l 4,0 0,4 -4,0 z M 152,140 l 4,0 0,4 -4,0 z M 164,140 l 4,0 0,4 -4,0 z M 168,140 l 4,0 0,4 -4,0 z M 176,140 l 4,0 0,4 -4,0 z M 180,140 l 4,0 0,4 -4,0 z M 188,140 l 4,0 0,4 -4,0 z M 192,140 l 4,0 0,4 -4,0 z M 200,140 l 4,0 0,4 -4,0 z M 212,140 l 4,0 0,4 -4,0 z M 4,144 l 4,0 0,4 -4,0 z M 8,144 l 4,0 0,4 -4,0 z M 12,144 l 4,0 0,4 -4,0 z M 16,144 l 4,0 0,4 -4,0 z M 32,144 l 4,0 0,4 -4,0 z M 44,144 l 4,0 0,4 -4,0 z M 48,144 l 4,0 0,4 -4,0 z M 64,144 l 4,0 0,4 -4,0 z M 96,144 l 4,0 0,4 -4,0 z M 100,144 l 4,0 0,4 -4,0 z M 104,144 l 4,0 0,4 -4,0 z M 108,144 l 4,0 0,4 -4,0 z M 136,144 l 4,0 0,4 -4,0 z M 144,144 l 4,0 0,4 -4,0 z M 156,144 l 4,0 0,4 -4,0 z M 160,144 l 4,0 0,4 -4,0 z M 184,144 l 4,0 0,4 -4,0 z M 192,144 l 4,0 0,4 -4,0 z M 196,144 l 4,0 0,4 -4,0 z M 200,144 l 4,0 0,4 -4,0 z M 212,144 l 4,0 0,4 -4,0 z M 4,148 l 4,0 0,4 -4,0 z M 8,148 l 4,0 0,4 -4,0 z M 12,148 l 4,0 0,4 -4,0 z M 20,148 l 4,0 0,4 -4,0 z M 24,148 l 4,0 0,4 -4,0 z M 28,148 l 4,0 0,4 -4,0 z M 36,148 l 4,0 0,4 -4,0 z M 44,148 l 4,0 0,4 -4,0 z M 64,148 l 4,0 0,4 -4,0 z M 84,148 l 4,0 0,4 -4,0 z M 92,148 l 4,0 0,4 -4,0 z M 108,148 l 4,0 0,4 -4,0 z M 116,148 l 4,0 0,4 -4,0 z M 120,148 l 4,0 0,4 -4,0 z M 136,148 l 4,0 0,4 -4,0 z M 140,148 l 4,0 0,4 -4,0 z M 144,148 l 4,0 0,4 -4,0 z M 148,148 l 4,0 0,4 -4,0 z M 152,148 l 4,0 0,4 -4,0 z M 156,148 l 4,0 0,4 -4,0 z M 160,148 l 4,0 0,4 -4,0 z M 192,148 l 4,0 0,4 -4,0 z M 196,148 l 4,0 0,4 -4,0 z M 212,148 l 4,0 0,4 -4,0 z M 4,152 l 4,0 0,4 -4,0 z M 12,152 l 4,0 0,4 -4,0 z M 20,152 l 4,0 0,4 -4,0 z M 32,152 l 4,0 0,4 -4,0 z M 40,152 l 4,0 0,4 -4,0 z M 44,152 l 4,0 0,4 -4,0 z M 48,152 l 4,0 0,4 -4,0 z M 52,152 l 4,0 0,4 -4,0 z M 60,152 l 4,0 0,4 -4,0 z M 64,152 l 4,0 0,4 -4,0 z M 88,152 l 4,0 0,4 -4,0 z M 92,152 l 4,0 0,4 -4,0 z M 100,152 l 4,0 0,4 -4,0 z M 104,152 l 4,0 0,4 -4,0 z M 112,152 l 4,0 0,4 -4,0 z M 116,152 l 4,0 0,4 -4,0 z M 120,152 l 4,0 0,4 -4,0 z M 124,152 l 4,0 0,4 -4,0 z M 128,152 l 4,0 0,4 -4,0 z M 136,152 l 4,0 0,4 -4,0 z M 140,152 l 4,0 0,4 -4,0 z M 144,152 l 4,0 0,4 -4,0 z M 148,152 l 4,0 0,4 -4,0 z M 152,152 l 4,0 0,4 -4,0 z M 160,152 l 4,0 0,4 -4,0 z M 180,152 l 4,0 0,4 -4,0 z M 184,152 l 4,0 0,4 -4,0 z M 188,152 l 4,0 0,4 -4,0 z M 196,152 l 4,0 0,4 -4,0 z M 200,152 l 4,0 0,4 -4,0 z M 208,152 l 4,0 0,4 -4,0 z M 4,156 l 4,0 0,4 -4,0 z M 8,156 l 4,0 0,4 -4,0 z M 12,156 l 4,0 0,4 -4,0 z M 28,156 l 4,0 0,4 -4,0 z M 32,156 l 4,0 0,4 -4,0 z M 44,156 l 4,0 0,4 -4,0 z M 48,156 l 4,0 0,4 -4,0 z M 52,156 l 4,0 0,4 -4,0 z M 56,156 l 4,0 0,4 -4,0 z M 60,156 l 4,0 0,4 -4,0 z M 80,156 l 4,0 0,4 -4,0 z M 84,156 l 4,0 0,4 -4,0 z M 88,156 l 4,0 0,4 -4,0 z M 92,156 l 4,0 0,4 -4,0 z M 100,156 l 4,0 0,4 -4,0 z M 108,156 l 4,0 0,4 -4,0 z M 116,156 l 4,0 0,4 -4,0 z M 120,156 l 4,0 0,4 -4,0 z M 136,156 l 4,0 0,4 -4,0 z M 140,156 l 4,0 0,4 -4,0 z M 144,156 l 4,0 0,4 -4,0 z M 148,156 l 4,0 0,4 -4,0 z M 172,156 l 4,0 0,4 -4,0 z M 188,156 l 4,0 0,4 -4,0 z M 196,156 l 4,0 0,4 -4,0 z M 200,156 l 4,0 0,4 -4,0 z M 8,160 l 4,0 0,4 -4,0 z M 12,160 l 4,0 0,4 -4,0 z M 16,160 l 4,0 0,4 -4,0 z M 24,160 l 4,0 0,4 -4,0 z M 36,160 l 4,0 0,4 -4,0 z M 44,160 l 4,0 0,4 -4,0 z M 52,160 l 4,0 0,4 -4,0 z M 60,160 l 4,0 0,4 -4,0 z M 68,160 l 4,0 0,4 -4,0 z M 80,160 l 4,0 0,4 -4,0 z M 84,160 l 4,0 0,4 -4,0 z M 92,160 l 4,0 0,4 -4,0 z M 96,160 l 4,0 0,4 -4,0 z M 100,160 l 4,0 0,4 -4,0 z M 104,160 l 4,0 0,4 -4,0 z M 108,160 l 4,0 0,4 -4,0 z M 124,160 l 4,0 0,4 -4,0 z M 128,160 l 4,0 0,4 -4,0 z M 132,160 l 4,0 0,4 -4,0 z M 136,160 l 4,0 0,4 -4,0 z M 140,160 l 4,0 0,4 -4,0 z M 152,160 l 4,0 0,4 -4,0 z M 160,160 l 4,0 0,4 -4,0 z M 176,160 l 4,0 0,4 -4,0 z M 180,160 l 4,0 0,4 -4,0 z M 184,160 l 4,0 0,4 -4,0 z M 188,160 l 4,0 0,4 -4,0 z M 208,160 l 4,0 0,4 -4,0 z M 212,160 l 4,0 0,4 -4,0 z M 12,164 l 4,0 0,4 -4,0 z M 24,164 l 4,0 0,4 -4,0 z M 28,164 l 4,0 0,4 -4,0 z M 48,164 l 4,0 0,4 -4,0 z M 56,164 l 4,0 0,4 -4,0 z M 60,164 l 4,0 0,4 -4,0 z M 64,164 l 4,0 0,4 -4,0 z M 76,164 l 4,0 0,4 -4,0 z M 88,164 l 4,0 0,4 -4,0 z M 92,164 l 4,0 0,4 -4,0 z M 104,164 l 4,0 0,4 -4,0 z M 112,164 l 4,0 0,4 -4,0 z M 116,164 l 4,0 0,4 -4,0 z M 120,164 l 4,0 0,4 -4,0 z M 124,164 l 4,0 0,4 -4,0 z M 132,164 l 4,0 0,4 -4,0 z M 136,164 l 4,0 0,4 -4,0 z M 140,164 l 4,0 0,4 -4,0 z M 148,164 l 4,0 0,4 -4,0 z M 168,164 l 4,0 0,4 -4,0 z M 172,164 l 4,0 0,4 -4,0 z M 188,164 l 4,0 0,4 -4,0 z M 196,164 l 4,0 0,4 -4,0 z M 212,164 l 4,0 0,4 -4,0 z M 12,168 l 4,0 0,4 -4,0 z M 32,168 l 4,0 0,4 -4,0 z M 36,168 l 4,0 0,4 -4,0 z M 52,168 l 4,0 0,4 -4,0 z M 68,168 l 4,0 0,4 -4,0 z M 76,168 l 4,0 0,4 -4,0 z M 92,168 l 4,0 0,4 -4,0 z M 96,168 l 4,0 0,4 -4,0 z M 112,168 l 4,0 0,4 -4,0 z M 120,168 l 4,0 0,4 -4,0 z M 124,168 l 4,0 0,4 -4,0 z M 136,168 l 4,0 0,4 -4,0 z M 144,168 l 4,0 0,4 -4,0 z M 152,168 l 4,0 0,4 -4,0 z M 160,168 l 4,0 0,4 -4,0 z M 164,168 l 4,0 0,4 -4,0 z M 168,168 l 4,0 0,4 -4,0 z M 172,168 l 4,0 0,4 -4,0 z M 176,168 l 4,0 0,4 -4,0 z M 180,168 l 4,0 0,4 -4,0 z M 184,168 l 4,0 0,4 -4,0 z M 192,168 l 4,0 0,4 -4,0 z M 196,168 l 4,0 0,4 -4,0 z M 204,168 l 4,0 0,4 -4,0 z M 4,172 l 4,0 0,4 -4,0 z M 8,172 l 4,0 0,4 -4,0 z M 16,172 l 4,0 0,4 -4,0 z M 20,172 l 4,0 0,4 -4,0 z M 24,172 l 4,0 0,4 -4,0 z M 28,172 l 4,0 0,4 -4,0 z M 36,172 l 4,0 0,4 -4,0 z M 48,172 l 4,0 0,4 -4,0 z M 56,172 l 4,0 0,4 -4,0 z M 64,172 l 4,0 0,4 -4,0 z M 68,172 l 4,0 0,4 -4,0 z M 80,172 l 4,0 0,4 -4,0 z M 88,172 l 4,0 0,4 -4,0 z M 92,172 l 4,0 0,4 -4,0 z M 96,172 l 4,0 0,4 -4,0 z M 100,172 l 4,0 0,4 -4,0 z M 116,172 l 4,0 0,4 -4,0 z M 124,172 l 4,0 0,4 -4,0 z M 160,172 l 4,0 0,4 -4,0 z M 164,172 l 4,0 0,4 -4,0 z M 168,172 l 4,0 0,4 -4,0 z M 176,172 l 4,0 0,4 -4,0 z M 180,172 l 4,0 0,4 -4,0 z M 208,172 l 4,0 0,4 -4,0 z M 212,172 l 4,0 0,4 -4,0 z M 8,176 l 4,0 0,4 -4,0 z M 12,176 l 4,0 0,4 -4,0 z M 32,176 l 4,0 0,4 -4,0 z M 40,176 l 4,0 0,4 -4,0 z M 48,176 l 4,0 0,4 -4,0 z M 68,176 l 4,0 0,4 -4,0 z M 88,176 l 4,0 0,4 -4,0 z M 104,176 l 4,0 0,4 -4,0 z M 108,176 l 4,0 0,4 -4,0 z M 112,176 l 4,0 0,4 -4,0 z M 124,176 l 4,0 0,4 -4,0 z M 132,176 l 4,0 0,4 -4,0 z M 160,176 l 4,0 0,4 -4,0 z M 164,176 l 4,0 0,4 -4,0 z M 168,176 l 4,0 0,4 -4,0 z M 184,176 l 4,0 0,4 -4,0 z M 188,176 l 4,0 0,4 -4,0 z M 16,180 l 4,0 0,4 -4,0 z M 28,180 l 4,0 0,4 -4,0 z M 32,180 l 4,0 0,4 -4,0 z M 36,180 l 4,0 0,4 -4,0 z M 40,180 l 4,0 0,4 -4,0 z M 48,180 l 4,0 0,4 -4,0 z M 52,180 l 4,0 0,4 -4,0 z M 56,180 l 4,0 0,4 -4,0 z M 64,180 l 4,0 0,4 -4,0 z M 72,180 l 4,0 0,4 -4,0 z M 76,180 l 4,0 0,4 -4,0 z M 84,180 l 4,0 0,4 -4,0 z M 88,180 l 4,0 0,4 -4,0 z M 100,180 l 4,0 0,4 -4,0 z M 104,180 l 4,0 0,4 -4,0 z M 108,180 l 4,0 0,4 -4,0 z M 112,180 l 4,0 0,4 -4,0 z M 116,180 l 4,0 0,4 -4,0 z M 120,180 l 4,0 0,4 -4,0 z M 132,180 l 4,0 0,4 -4,0 z M 144,180 l 4,0 0,4 -4,0 z M 148,180 l 4,0 0,4 -4,0 z M 152,180 l 4,0 0,4 -4,0 z M 156,180 l 4,0 0,4 -4,0 z M 160,180 l 4,0 0,4 -4,0 z M 172,180 l 4,0 0,4 -4,0 z M 180,180 l 4,0 0,4 -4,0 z M 184,180 l 4,0 0,4 -4,0 z M 188,180 l 4,0 0,4 -4,0 z M 192,180 l 4,0 0,4 -4,0 z M 196,180 l 4,0 0,4 -4,0 z M 204,180 l 4,0 0,4 -4,0 z M 36,184 l 4,0 0,4 -4,0 z M 44,184 l 4,0 0,4 -4,0 z M 48,184 l 4,0 0,4 -4,0 z M 52,184 l 4,0 0,4 -4,0 z M 76,184 l 4,0 0,4 -4,0 z M 88,184 l 4,0 0,4 -4,0 z M 100,184 l 4,0 0,4 -4,0 z M 116,184 l 4,0 0,4 -4,0 z M 124,184 l 4,0 0,4 -4,0 z M 128,184 l 4,0 0,4 -4,0 z M 132,184 l 4,0 0,4 -4,0 z M 140,184 l 4,0 0,4 -4,0 z M 144,184 l 4,0 0,4 -4,0 z M 152,184 l 4,0 0,4 -4,0 z M 160,184 l 4,0 0,4 -4,0 z M 172,184 l 4,0 0,4 -4,0 z M 180,184 l 4,0 0,4 -4,0 z M 196,184 l 4,0 0,4 -4,0 z M 208,184 l 4,0 0,4 -4,0 z M 212,184 l 4,0 0,4 -4,0 z M 4,188 l 4,0 0,4 -4,0 z M 8,188 l 4,0 0,4 -4,0 z M 12,188 l 4,0 0,4 -4,0 z M 16,188 l 4,0 0,4 -4,0 z M 20,188 l 4,0 0,4 -4,0 z M 24,188 l 4,0 0,4 -4,0 z M 28,188 l 4,0 0,4 -4,0 z M 36,188 l 4,0 0,4 -4,0 z M 60,188 l 4,0 0,4 -4,0 z M 68,188 l 4,0 0,4 -4,0 z M 72,188 l 4,0 0,4 -4,0 z M 88,188 l 4,0 0,4 -4,0 z M 100,188 l 4,0 0,4 -4,0 z M 108,188 l 4,0 0,4 -4,0 z M 116,188 l 4,0 0,4 -4,0 z M 124,188 l 4,0 0,4 -4,0 z M 132,188 l 4,0 0,4 -4,0 z M 148,188 l 4,0 0,4 -4,0 z M 156,188 l 4,0 0,4 -4,0 z M 164,188 l 4,0 0,4 -4,0 z M 180,188 l 4,0 0,4 -4,0 z M 188,188 l 4,0 0,4 -4,0 z M 196,188 l 4,0 0,4 -4,0 z M 208,188 l 4,0 0,4 -4,0 z M 4,192 l 4,0 0,4 -4,0 z M 28,192 l 4,0 0,4 -4,0 z M 40,192 l 4,0 0,4 -4,0 z M 44,192 l 4,0 0,4 -4,0 z M 48,192 l 4,0 0,4 -4,0 z M 56,192 l 4,0 0,4 -4,0 z M 80,192 l 4,0 0,4 -4,0 z M 84,192 l 4,0 0,4 -4,0 z M 92,192 l 4,0 0,4 -4,0 z M 100,192 l 4,0 0,4 -4,0 z M 116,192 l 4,0 0,4 -4,0 z M 132,192 l 4,0 0,4 -4,0 z M 144,192 l 4,0 0,4 -4,0 z M 152,192 l 4,0 0,4 -4,0 z M 160,192 l 4,0 0,4 -4,0 z M 172,192 l 4,0 0,4 -4,0 z M 180,192 l 4,0 0,4 -4,0 z M 196,192 l 4,0 0,4 -4,0 z M 200,192 l 4,0 0,4 -4,0 z M 212,192 l 4,0 0,4 -4,0 z M 4,196 l 4,0 0,4 -4,0 z M 12,196 l 4,0 0,4 -4,0 z M 16,196 l 4,0 0,4 -4,0 z M 20,196 l 4,0 0,4 -4,0 z M 28,196 l 4,0 0,4 -4,0 z M 36,196 l 4,0 0,4 -4,0 z M 40,196 l 4,0 0,4 -4,0 z M 44,196 l 4,0 0,4 -4,0 z M 60,196 l 4,0 0,4 -4,0 z M 72,196 l 4,0 0,4 -4,0 z M 80,196 l 4,0 0,4 -4,0 z M 88,196 l 4,0 0,4 -4,0 z M 100,196 l 4,0 0,4 -4,0 z M 104,196 l 4,0 0,4 -4,0 z M 108,196 l 4,0 0,4 -4,0 z M 112,196 l 4,0 0,4 -4,0 z M 116,196 l 4,0 0,4 -4,0 z M 120,196 l 4,0 0,4 -4,0 z M 124,196 l 4,0 0,4 -4,0 z M 136,196 l 4,0 0,4 -4,0 z M 148,196 l 4,0 0,4 -4,0 z M 152,196 l 4,0 0,4 -4,0 z M 160,196 l 4,0 0,4 -4,0 z M 180,196 l 4,0 0,4 -4,0 z M 184,196 l 4,0 0,4 -4,0 z M 188,196 l 4,0 0,4 -4,0 z M 192,196 l 4,0 0,4 -4,0 z M 196,196 l 4,0 0,4 -4,0 z M 212,196 l 4,0 0,4 -4,0 z M 4,200 l 4,0 0,4 -4,0 z M 12,200 l 4,0 0,4 -4,0 z M 16,200 l 4,0 0,4 -4,0 z M 20,200 l 4,0 0,4 -4,0 z M 28,200 l 4,0 0,4 -4,0 z M 36,200 l 4,0 0,4 -4,0 z M 40,200 l 4,0 0,4 -4,0 z M 48,200 l 4,0 0,4 -4,0 z M 52,200 l 4,0 0,4 -4,0 z M 56,200 l 4,0 0,4 -4,0 z M 60,200 l 4,0 0,4 -4,0 z M 64,200 l 4,0 0,4 -4,0 z M 76,200 l 4,0 0,4 -4,0 z M 80,200 l 4,0 0,4 -4,0 z M 88,200 l 4,0 0,4 -4,0 z M 96,200 l 4,0 0,4 -4,0 z M 100,200 l 4,0 0,4 -4,0 z M 112,200 l 4,0 0,4 -4,0 z M 120,200 l 4,0 0,4 -4,0 z M 124,200 l 4,0 0,4 -4,0 z M 128,200 l 4,0 0,4 -4,0 z M 132,200 l 4,0 0,4 -4,0 z M 148,200 l 4,0 0,4 -4,0 z M 152,200 l 4,0 0,4 -4,0 z M 168,200 l 4,0 0,4 -4,0 z M 172,200 l 4,0 0,4 -4,0 z M 180,200 l 4,0 0,4 -4,0 z M 184,200 l 4,0 0,4 -4,0 z M 196,200 l 4,0 0,4 -4,0 z M 204,200 l 4,0 0,4 -4,0 z M 208,200 l 4,0 0,4 -4,0 z M 4,204 l 4,0 0,4 -4,0 z M 12,204 l 4,0 0,4 -4,0 z M 16,204 l 4,0 0,4 -4,0 z M 20,204 l 4,0 0,4 -4,0 z M 28,204 l 4,0 0,4 -4,0 z M 36,204 l 4,0 0,4 -4,0 z M 40,204 l 4,0 0,4 -4,0 z M 44,204 l 4,0 0,4 -4,0 z M 48,204 l 4,0 0,4 -4,0 z M 92,204 l 4,0 0,4 -4,0 z M 116,204 l 4,0 0,4 -4,0 z M 124,204 l 4,0 0,4 -4,0 z M 128,204 l 4,0 0,4 -4,0 z M 136,204 l 4,0 0,4 -4,0 z M 144,204 l 4,0 0,4 -4,0 z M 160,204 l 4,0 0,4 -4,0 z M 180,204 l 4,0 0,4 -4,0 z M 184,204 l 4,0 0,4 -4,0 z M 188,204 l 4,0 0,4 -4,0 z M 208,204 l 4,0 0,4 -4,0 z M 4,208 l 4,0 0,4 -4,0 z M 28,208 l 4,0 0,4 -4,0 z M 36,208 l 4,0 0,4 -4,0 z M 60,208 l 4,0 0,4 -4,0 z M 64,208 l 4,0 0,4 -4,0 z M 72,208 l 4,0 0,4 -4,0 z M 76,208 l 4,0 0,4 -4,0 z M 84,208 l 4,0 0,4 -4,0 z M 128,208 l 4,0 0,4 -4,0 z M 132,208 l 4,0 0,4 -4,0 z M 136,208 l 4,0 0,4 -4,0 z M 144,208 l 4,0 0,4 -4,0 z M 160,208 l 4,0 0,4 -4,0 z M 168,208 l 4,0 0,4 -4,0 z M 184,208 l 4,0 0,4 -4,0 z M 204,208 l 4,0 0,4 -4,0 z M 208,208 l 4,0 0,4 -4,0 z M 212,208 l 4,0 0,4 -4,0 z M 4,212 l 4,0 0,4 -4,0 z M 8,212 l 4,0 0,4 -4,0 z M 12,212 l 4,0 0,4 -4,0 z M 16,212 l 4,0 0,4 -4,0 z M 20,212 l 4,0 0,4 -4,0 z M 24,212 l 4,0 0,4 -4,0 z M 28,212 l 4,0 0,4 -4,0 z M 36,212 l 4,0 0,4 -4,0 z M 40,212 l 4,0 0,4 -4,0 z M 44,212 l 4,0 0,4 -4,0 z M 56,212 l 4,0 0,4 -4,0 z M 64,212 l 4,0 0,4 -4,0 z M 92,212 l 4,0 0,4 -4,0 z M 104,212 l 4,0 0,4 -4,0 z M 124,212 l 4,0 0,4 -4,0 z M 128,212 l 4,0 0,4 -4,0 z M 136,212 l 4,0 0,4 -4,0 z M 140,212 l 4,0 0,4 -4,0 z M 144,212 l 4,0 0,4 -4,0 z M 148,212 l 4,0 0,4 -4,0 z M 152,212 l 4,0 0,4 -4,0 z M 160,212 l 4,0 0,4 -4,0 z M 164,212 l 4,0 0,4 -4,0 z M 176,212 l 4,0 0,4 -4,0 z M 180,212 l 4,0 0,4 -4,0 z M 196,212 l 4,0 0,4 -4,0 z M 208,212 l 4,0 0,4 -4,0 z " />
	</g>
</svg>
